<?plantuml 1.2026.0?><svg xmlns="http://www.w3.org/2000/svg" xmlns:xlink="http://www.w3.org/1999/xlink" contentStyleType="text/css" data-diagram-type="CLASS" height="695px" preserveAspectRatio="none" style="width:1167px;height:695px;background:#FFFFFF;" version="1.1" viewBox="0 0 1167 695" width="1167px" zoomAndPan="magnify"><defs/><g><!--class Document--><g class="entity" data-qualified-name="Document" data-source-line="4" id="ent0002"><rect fill="#F1F1F1" height="64.2969" rx="2.5" ry="2.5" style="stroke:#181818;stroke-width:0.5;" width="134.999" x="124.48" y="516.34"/><ellipse cx="153.1914" cy="532.34" fill="#ADD1B2" rx="11" ry="11" style="stroke:#181818;stroke-width:1;"/><path d="M156.1601,537.9806 Q155.582,538.2775 154.9414,538.4181 Q154.3008,538.5744 153.5976,538.5744 Q151.0976,538.5744 149.7695,536.9338 Q148.457,535.2775 148.457,532.1525 Q148.457,529.0275 149.7695,527.3713 Q151.0976,525.715 153.5976,525.715 Q154.3008,525.715 154.9414,525.8713 Q155.5976,526.0275 156.1601,526.3244 L156.1601,529.0431 Q155.5351,528.465 154.9414,528.1994 Q154.3476,527.9181 153.7226,527.9181 Q152.3789,527.9181 151.6914,528.9963 Q151.0039,530.0588 151.0039,532.1525 Q151.0039,534.2463 151.6914,535.3244 Q152.3789,536.3869 153.7226,536.3869 Q154.3476,536.3869 154.9414,536.1213 Q155.5351,535.84 156.1601,535.2619 L156.1601,537.9806 Z " fill="#000000"/><text fill="#000000" font-family="sans-serif" font-size="14" lengthAdjust="spacing" textLength="72.5293" x="170.2383" y="537.1867">Document</text><line style="stroke:#181818;stroke-width:0.5;" x1="125.48" x2="258.479" y1="548.34" y2="548.34"/><g data-visibility-modifier="PRIVATE_FIELD"><rect fill="none" height="6" style="stroke:#C82930;stroke-width:1;" width="6" x="132.48" y="558.9884"/></g><text fill="#000000" font-family="sans-serif" font-size="14" lengthAdjust="spacing" textLength="108.999" x="144.48" y="565.3351">content : String</text><line style="stroke:#181818;stroke-width:0.5;" x1="125.48" x2="258.479" y1="572.6369" y2="572.6369"/></g><!--class FileManager--><g class="entity" data-qualified-name="FileManager" data-source-line="12" id="ent0003"><rect fill="#F1F1F1" height="113.1875" rx="2.5" ry="2.5" style="stroke:#181818;stroke-width:0.5;" width="237.4014" x="602.28" y="302.41"/><ellipse cx="673.8249" cy="318.41" fill="#ADD1B2" rx="11" ry="11" style="stroke:#181818;stroke-width:1;"/><path d="M676.7937,324.0506 Q676.2155,324.3475 675.5749,324.4881 Q674.9343,324.6444 674.2312,324.6444 Q671.7312,324.6444 670.403,323.0037 Q669.0905,321.3475 669.0905,318.2225 Q669.0905,315.0975 670.403,313.4412 Q671.7312,311.785 674.2312,311.785 Q674.9343,311.785 675.5749,311.9412 Q676.2312,312.0975 676.7937,312.3944 L676.7937,315.1131 Q676.1687,314.535 675.5749,314.2694 Q674.9812,313.9881 674.3562,313.9881 Q673.0124,313.9881 672.3249,315.0662 Q671.6374,316.1287 671.6374,318.2225 Q671.6374,320.3162 672.3249,321.3944 Q673.0124,322.4569 674.3562,322.4569 Q674.9812,322.4569 675.5749,322.1912 Q676.1687,321.91 676.7937,321.3319 L676.7937,324.0506 Z " fill="#000000"/><text fill="#000000" font-family="sans-serif" font-size="14" lengthAdjust="spacing" textLength="85.8115" x="694.3249" y="323.2567">FileManager</text><line style="stroke:#181818;stroke-width:0.5;" x1="603.28" x2="838.6814" y1="334.41" y2="334.41"/><g data-visibility-modifier="PRIVATE_FIELD"><rect fill="none" height="6" style="stroke:#C82930;stroke-width:1;" width="6" x="610.28" y="345.0584"/></g><text fill="#000000" font-family="sans-serif" font-size="14" lengthAdjust="spacing" textLength="200.7236" x="622.28" y="351.4051">saveStrategy : SaveStrategy</text><g data-visibility-modifier="PRIVATE_FIELD"><rect fill="none" height="6" style="stroke:#C82930;stroke-width:1;" width="6" x="610.28" y="361.3553"/></g><text fill="#000000" font-family="sans-serif" font-size="14" lengthAdjust="spacing" textLength="211.4014" x="622.28" y="367.702">parseStrategy : ParseStrategy</text><line style="stroke:#181818;stroke-width:0.5;" x1="603.28" x2="838.6814" y1="375.0037" y2="375.0037"/><g data-visibility-modifier="PUBLIC_METHOD"><ellipse cx="613.28" cy="388.6522" fill="#84BE84" rx="3" ry="3" style="stroke:#038048;stroke-width:1;"/></g><text fill="#000000" font-family="sans-serif" font-size="14" lengthAdjust="spacing" textLength="160.7334" x="622.28" y="391.9989">read(path) : Document</text><g data-visibility-modifier="PUBLIC_METHOD"><ellipse cx="613.28" cy="404.9491" fill="#84BE84" rx="3" ry="3" style="stroke:#038048;stroke-width:1;"/></g><text fill="#000000" font-family="sans-serif" font-size="14" lengthAdjust="spacing" textLength="154.9912" x="622.28" y="408.2957">save(doc : Document)</text></g><!--class SaveStrategy--><g class="entity" data-qualified-name="SaveStrategy" data-source-line="19" id="ent0004"><rect fill="#F1F1F1" height="64.2969" rx="2.5" ry="2.5" style="stroke:#181818;stroke-width:0.5;" width="221.7197" x="741.12" y="516.34"/><ellipse cx="800.5551" cy="532.34" fill="#B4A7E5" rx="11" ry="11" style="stroke:#181818;stroke-width:1;"/><path d="M796.4769,528.1056 L796.4769,525.9494 L803.8676,525.9494 L803.8676,528.1056 L801.3988,528.1056 L801.3988,536.1838 L803.8676,536.1838 L803.8676,538.34 L796.4769,538.34 L796.4769,536.1838 L798.9457,536.1838 L798.9457,528.1056 L796.4769,528.1056 Z " fill="#000000"/><text fill="#000000" font-family="sans-serif" font-size="14" font-style="italic" lengthAdjust="spacing" textLength="94.3496" x="821.0551" y="537.1867">SaveStrategy</text><line style="stroke:#181818;stroke-width:0.5;" x1="742.12" x2="961.8397" y1="548.34" y2="548.34"/><line style="stroke:#181818;stroke-width:0.5;" x1="742.12" x2="961.8397" y1="556.34" y2="556.34"/><g data-visibility-modifier="PUBLIC_METHOD"><ellipse cx="752.12" cy="569.9884" fill="#84BE84" rx="3" ry="3" style="stroke:#038048;stroke-width:1;"/></g><text fill="#000000" font-family="sans-serif" font-size="14" lengthAdjust="spacing" textLength="195.7197" x="761.12" y="573.3351">save(doc : Document, path)</text></g><!--class LosslessSave--><g class="entity" data-qualified-name="LosslessSave" data-source-line="23" id="ent0005"><rect fill="#F1F1F1" height="48" rx="2.5" ry="2.5" style="stroke:#181818;stroke-width:0.5;" width="124.4082" x="804.77" y="640.64"/><ellipse cx="819.77" cy="656.64" fill="#ADD1B2" rx="11" ry="11" style="stroke:#181818;stroke-width:1;"/><path d="M822.7388,662.2806 Q822.1606,662.5775 821.52,662.7181 Q820.8794,662.8744 820.1763,662.8744 Q817.6763,662.8744 816.3481,661.2338 Q815.0356,659.5775 815.0356,656.4525 Q815.0356,653.3275 816.3481,651.6713 Q817.6763,650.015 820.1763,650.015 Q820.8794,650.015 821.52,650.1713 Q822.1763,650.3275 822.7388,650.6244 L822.7388,653.3431 Q822.1138,652.765 821.52,652.4994 Q820.9263,652.2181 820.3013,652.2181 Q818.9575,652.2181 818.27,653.2963 Q817.5825,654.3588 817.5825,656.4525 Q817.5825,658.5463 818.27,659.6244 Q818.9575,660.6869 820.3013,660.6869 Q820.9263,660.6869 821.52,660.4213 Q822.1138,660.14 822.7388,659.5619 L822.7388,662.2806 Z " fill="#000000"/><text fill="#000000" font-family="sans-serif" font-size="14" lengthAdjust="spacing" textLength="92.4082" x="833.77" y="661.4867">LosslessSave</text><line style="stroke:#181818;stroke-width:0.5;" x1="805.77" x2="928.1782" y1="672.64" y2="672.64"/><line style="stroke:#181818;stroke-width:0.5;" x1="805.77" x2="928.1782" y1="680.64" y2="680.64"/></g><!--class NoMarkdownSave--><g class="entity" data-qualified-name="NoMarkdownSave" data-source-line="24" id="ent0006"><rect fill="#F1F1F1" height="48" rx="2.5" ry="2.5" style="stroke:#181818;stroke-width:0.5;" width="157.6992" x="993.13" y="640.64"/><ellipse cx="1008.13" cy="656.64" fill="#ADD1B2" rx="11" ry="11" style="stroke:#181818;stroke-width:1;"/><path d="M1011.0988,662.2806 Q1010.5206,662.5775 1009.88,662.7181 Q1009.2394,662.8744 1008.5363,662.8744 Q1006.0363,662.8744 1004.7081,661.2338 Q1003.3956,659.5775 1003.3956,656.4525 Q1003.3956,653.3275 1004.7081,651.6713 Q1006.0363,650.015 1008.5363,650.015 Q1009.2394,650.015 1009.88,650.1713 Q1010.5363,650.3275 1011.0988,650.6244 L1011.0988,653.3431 Q1010.4738,652.765 1009.88,652.4994 Q1009.2863,652.2181 1008.6613,652.2181 Q1007.3175,652.2181 1006.63,653.2963 Q1005.9425,654.3588 1005.9425,656.4525 Q1005.9425,658.5463 1006.63,659.6244 Q1007.3175,660.6869 1008.6613,660.6869 Q1009.2863,660.6869 1009.88,660.4213 Q1010.4738,660.14 1011.0988,659.5619 L1011.0988,662.2806 Z " fill="#000000"/><text fill="#000000" font-family="sans-serif" font-size="14" lengthAdjust="spacing" textLength="125.6992" x="1022.13" y="661.4867">NoMarkdownSave</text><line style="stroke:#181818;stroke-width:0.5;" x1="994.13" x2="1149.8292" y1="672.64" y2="672.64"/><line style="stroke:#181818;stroke-width:0.5;" x1="994.13" x2="1149.8292" y1="680.64" y2="680.64"/></g><!--class ESaveStrategies--><g class="entity" data-qualified-name="ESaveStrategies" data-source-line="31" id="ent0010"><rect fill="#F1F1F1" height="145.7813" rx="2.5" ry="2.5" style="stroke:#181818;stroke-width:0.5;" width="285.998" x="874.98" y="286.12"/><ellipse cx="956.3755" cy="302.12" fill="#EB937F" rx="11" ry="11" style="stroke:#181818;stroke-width:1;"/><path d="M960.4849,308.12 L952.7661,308.12 L952.7661,295.7294 L960.4849,295.7294 L960.4849,297.8856 L955.2193,297.8856 L955.2193,300.5575 L959.9849,300.5575 L959.9849,302.7138 L955.2193,302.7138 L955.2193,305.9638 L960.4849,305.9638 L960.4849,308.12 Z " fill="#000000"/><text fill="#000000" font-family="sans-serif" font-size="14" lengthAdjust="spacing" textLength="114.707" x="976.8755" y="306.9667">ESaveStrategies</text><line style="stroke:#181818;stroke-width:0.5;" x1="875.98" x2="1159.978" y1="318.12" y2="318.12"/><g data-visibility-modifier="PUBLIC_FIELD"><ellipse cx="885.98" cy="331.7684" fill="none" rx="3" ry="3" style="stroke:#038048;stroke-width:1;"/></g><text fill="#000000" font-family="sans-serif" font-size="14" lengthAdjust="spacing" textLength="71.0117" x="894.98" y="335.1151">LOSSLESS</text><g data-visibility-modifier="PUBLIC_FIELD"><ellipse cx="885.98" cy="348.0653" fill="none" rx="3" ry="3" style="stroke:#038048;stroke-width:1;"/></g><text fill="#000000" font-family="sans-serif" font-size="14" lengthAdjust="spacing" textLength="115.1719" x="894.98" y="351.412">NO_MARKDOWN</text><g data-visibility-modifier="PRIVATE_FIELD"><rect fill="none" height="6" style="stroke:#C82930;stroke-width:1;" width="6" x="882.98" y="361.3622"/></g><text fill="#000000" font-family="sans-serif" font-size="14" lengthAdjust="spacing" textLength="259.998" x="894.98" y="367.7089">Supplier&lt;SaveStrategy&gt; constructor</text><g data-visibility-modifier="PRIVATE_FIELD"><rect fill="none" height="6" style="stroke:#C82930;stroke-width:1;" width="6" x="882.98" y="377.6591"/></g><text fill="#000000" font-family="sans-serif" font-size="14" lengthAdjust="spacing" textLength="130.0537" x="894.98" y="384.0057">String prettyName</text><line style="stroke:#181818;stroke-width:0.5;" x1="875.98" x2="1159.978" y1="391.3075" y2="391.3075"/><g data-visibility-modifier="PUBLIC_METHOD"><ellipse cx="885.98" cy="404.9559" fill="#84BE84" rx="3" ry="3" style="stroke:#038048;stroke-width:1;"/></g><text fill="#000000" font-family="sans-serif" font-size="14" lengthAdjust="spacing" textLength="154.4717" x="894.98" y="408.3026">SaveStrategy create()</text><g data-visibility-modifier="PUBLIC_METHOD"><ellipse cx="885.98" cy="421.2528" fill="#84BE84" rx="3" ry="3" style="stroke:#038048;stroke-width:1;"/></g><text fill="#000000" font-family="sans-serif" font-size="14" lengthAdjust="spacing" textLength="112.9912" x="894.98" y="424.5995">String toString()</text></g><!--class Command--><g class="entity" data-qualified-name="Command" data-source-line="49" id="ent0014"><rect fill="#F1F1F1" height="64.2969" rx="2.5" ry="2.5" style="stroke:#181818;stroke-width:0.5;" width="204.4043" x="294.77" y="516.34"/><ellipse cx="356.7446" cy="532.34" fill="#B4A7E5" rx="11" ry="11" style="stroke:#181818;stroke-width:1;"/><path d="M352.6665,528.1056 L352.6665,525.9494 L360.0571,525.9494 L360.0571,528.1056 L357.5884,528.1056 L357.5884,536.1838 L360.0571,536.1838 L360.0571,538.34 L352.6665,538.34 L352.6665,536.1838 L355.1352,536.1838 L355.1352,528.1056 L352.6665,528.1056 Z " fill="#000000"/><text fill="#000000" font-family="sans-serif" font-size="14" font-style="italic" lengthAdjust="spacing" textLength="71.9551" x="377.2446" y="537.1867">Command</text><line style="stroke:#181818;stroke-width:0.5;" x1="295.77" x2="498.1743" y1="548.34" y2="548.34"/><line style="stroke:#181818;stroke-width:0.5;" x1="295.77" x2="498.1743" y1="556.34" y2="556.34"/><g data-visibility-modifier="PUBLIC_METHOD"><ellipse cx="305.77" cy="569.9884" fill="#84BE84" rx="3" ry="3" style="stroke:#038048;stroke-width:1;"/></g><text fill="#000000" font-family="sans-serif" font-size="14" lengthAdjust="spacing" textLength="178.4043" x="314.77" y="573.3351">execute(doc : Document)</text></g><!--class TypeCommand--><g class="entity" data-qualified-name="TypeCommand" data-source-line="53" id="ent0015"><rect fill="#F1F1F1" height="48" rx="2.5" ry="2.5" style="stroke:#181818;stroke-width:0.5;" width="138.292" x="543.83" y="640.64"/><ellipse cx="558.83" cy="656.64" fill="#ADD1B2" rx="11" ry="11" style="stroke:#181818;stroke-width:1;"/><path d="M561.7988,662.2806 Q561.2206,662.5775 560.58,662.7181 Q559.9394,662.8744 559.2363,662.8744 Q556.7363,662.8744 555.4081,661.2338 Q554.0956,659.5775 554.0956,656.4525 Q554.0956,653.3275 555.4081,651.6713 Q556.7363,650.015 559.2363,650.015 Q559.9394,650.015 560.58,650.1713 Q561.2363,650.3275 561.7988,650.6244 L561.7988,653.3431 Q561.1738,652.765 560.58,652.4994 Q559.9863,652.2181 559.3613,652.2181 Q558.0175,652.2181 557.33,653.2963 Q556.6425,654.3588 556.6425,656.4525 Q556.6425,658.5463 557.33,659.6244 Q558.0175,660.6869 559.3613,660.6869 Q559.9863,660.6869 560.58,660.4213 Q561.1738,660.14 561.7988,659.5619 L561.7988,662.2806 Z " fill="#000000"/><text fill="#000000" font-family="sans-serif" font-size="14" lengthAdjust="spacing" textLength="106.292" x="572.83" y="661.4867">TypeCommand</text><line style="stroke:#181818;stroke-width:0.5;" x1="544.83" x2="681.122" y1="672.64" y2="672.64"/><line style="stroke:#181818;stroke-width:0.5;" x1="544.83" x2="681.122" y1="680.64" y2="680.64"/></g><!--class DeleteCommand--><g class="entity" data-qualified-name="DeleteCommand" data-source-line="54" id="ent0016"><rect fill="#F1F1F1" height="48" rx="2.5" ry="2.5" style="stroke:#181818;stroke-width:0.5;" width="149.9541" x="7" y="640.64"/><ellipse cx="22" cy="656.64" fill="#ADD1B2" rx="11" ry="11" style="stroke:#181818;stroke-width:1;"/><path d="M24.9688,662.2806 Q24.3906,662.5775 23.75,662.7181 Q23.1094,662.8744 22.4063,662.8744 Q19.9063,662.8744 18.5781,661.2338 Q17.2656,659.5775 17.2656,656.4525 Q17.2656,653.3275 18.5781,651.6713 Q19.9063,650.015 22.4063,650.015 Q23.1094,650.015 23.75,650.1713 Q24.4063,650.3275 24.9688,650.6244 L24.9688,653.3431 Q24.3438,652.765 23.75,652.4994 Q23.1563,652.2181 22.5313,652.2181 Q21.1875,652.2181 20.5,653.2963 Q19.8125,654.3588 19.8125,656.4525 Q19.8125,658.5463 20.5,659.6244 Q21.1875,660.6869 22.5313,660.6869 Q23.1563,660.6869 23.75,660.4213 Q24.3438,660.14 24.9688,659.5619 L24.9688,662.2806 Z " fill="#000000"/><text fill="#000000" font-family="sans-serif" font-size="14" lengthAdjust="spacing" textLength="117.9541" x="36" y="661.4867">DeleteCommand</text><line style="stroke:#181818;stroke-width:0.5;" x1="8" x2="155.9541" y1="672.64" y2="672.64"/><line style="stroke:#181818;stroke-width:0.5;" x1="8" x2="155.9541" y1="680.64" y2="680.64"/></g><!--class PasteCommand--><g class="entity" data-qualified-name="PasteCommand" data-source-line="55" id="ent0017"><rect fill="#F1F1F1" height="48" rx="2.5" ry="2.5" style="stroke:#181818;stroke-width:0.5;" width="142.373" x="191.79" y="640.64"/><ellipse cx="206.79" cy="656.64" fill="#ADD1B2" rx="11" ry="11" style="stroke:#181818;stroke-width:1;"/><path d="M209.7588,662.2806 Q209.1806,662.5775 208.54,662.7181 Q207.8994,662.8744 207.1963,662.8744 Q204.6963,662.8744 203.3681,661.2338 Q202.0556,659.5775 202.0556,656.4525 Q202.0556,653.3275 203.3681,651.6713 Q204.6963,650.015 207.1963,650.015 Q207.8994,650.015 208.54,650.1713 Q209.1963,650.3275 209.7588,650.6244 L209.7588,653.3431 Q209.1338,652.765 208.54,652.4994 Q207.9463,652.2181 207.3213,652.2181 Q205.9775,652.2181 205.29,653.2963 Q204.6025,654.3588 204.6025,656.4525 Q204.6025,658.5463 205.29,659.6244 Q205.9775,660.6869 207.3213,660.6869 Q207.9463,660.6869 208.54,660.4213 Q209.1338,660.14 209.7588,659.5619 L209.7588,662.2806 Z " fill="#000000"/><text fill="#000000" font-family="sans-serif" font-size="14" lengthAdjust="spacing" textLength="110.373" x="220.79" y="661.4867">PasteCommand</text><line style="stroke:#181818;stroke-width:0.5;" x1="192.79" x2="333.163" y1="672.64" y2="672.64"/><line style="stroke:#181818;stroke-width:0.5;" x1="192.79" x2="333.163" y1="680.64" y2="680.64"/></g><!--class CopyCommand--><g class="entity" data-qualified-name="CopyCommand" data-source-line="59" id="ent0020"><rect fill="#F1F1F1" height="48" rx="2.5" ry="2.5" style="stroke:#181818;stroke-width:0.5;" width="139.4678" x="369.24" y="640.64"/><ellipse cx="384.24" cy="656.64" fill="#ADD1B2" rx="11" ry="11" style="stroke:#181818;stroke-width:1;"/><path d="M387.2088,662.2806 Q386.6306,662.5775 385.99,662.7181 Q385.3494,662.8744 384.6463,662.8744 Q382.1463,662.8744 380.8181,661.2338 Q379.5056,659.5775 379.5056,656.4525 Q379.5056,653.3275 380.8181,651.6713 Q382.1463,650.015 384.6463,650.015 Q385.3494,650.015 385.99,650.1713 Q386.6463,650.3275 387.2088,650.6244 L387.2088,653.3431 Q386.5838,652.765 385.99,652.4994 Q385.3963,652.2181 384.7713,652.2181 Q383.4275,652.2181 382.74,653.2963 Q382.0525,654.3588 382.0525,656.4525 Q382.0525,658.5463 382.74,659.6244 Q383.4275,660.6869 384.7713,660.6869 Q385.3963,660.6869 385.99,660.4213 Q386.5838,660.14 387.2088,659.5619 L387.2088,662.2806 Z " fill="#000000"/><text fill="#000000" font-family="sans-serif" font-size="14" lengthAdjust="spacing" textLength="107.4678" x="398.24" y="661.4867">CopyCommand</text><line style="stroke:#181818;stroke-width:0.5;" x1="370.24" x2="507.7078" y1="672.64" y2="672.64"/><line style="stroke:#181818;stroke-width:0.5;" x1="370.24" x2="507.7078" y1="680.64" y2="680.64"/></g><!--class DocumentMemento--><g class="entity" data-qualified-name="DocumentMemento" data-source-line="66" id="ent0023"><rect fill="#F1F1F1" height="64.2969" rx="2.5" ry="2.5" style="stroke:#181818;stroke-width:0.5;" width="170.4004" x="533.78" y="516.34"/><ellipse cx="548.78" cy="532.34" fill="#ADD1B2" rx="11" ry="11" style="stroke:#181818;stroke-width:1;"/><path d="M551.7488,537.9806 Q551.1706,538.2775 550.53,538.4181 Q549.8894,538.5744 549.1863,538.5744 Q546.6863,538.5744 545.3581,536.9338 Q544.0456,535.2775 544.0456,532.1525 Q544.0456,529.0275 545.3581,527.3713 Q546.6863,525.715 549.1863,525.715 Q549.8894,525.715 550.53,525.8713 Q551.1863,526.0275 551.7488,526.3244 L551.7488,529.0431 Q551.1238,528.465 550.53,528.1994 Q549.9363,527.9181 549.3113,527.9181 Q547.9675,527.9181 547.28,528.9963 Q546.5925,530.0588 546.5925,532.1525 Q546.5925,534.2463 547.28,535.3244 Q547.9675,536.3869 549.3113,536.3869 Q549.9363,536.3869 550.53,536.1213 Q551.1238,535.84 551.7488,535.2619 L551.7488,537.9806 Z " fill="#000000"/><text fill="#000000" font-family="sans-serif" font-size="14" lengthAdjust="spacing" textLength="138.4004" x="562.78" y="537.1867">DocumentMemento</text><line style="stroke:#181818;stroke-width:0.5;" x1="534.78" x2="703.1804" y1="548.34" y2="548.34"/><g data-visibility-modifier="PRIVATE_FIELD"><rect fill="none" height="6" style="stroke:#C82930;stroke-width:1;" width="6" x="541.78" y="558.9884"/></g><text fill="#000000" font-family="sans-serif" font-size="14" lengthAdjust="spacing" textLength="90.8633" x="553.78" y="565.3351">state : String</text><line style="stroke:#181818;stroke-width:0.5;" x1="534.78" x2="703.1804" y1="572.6369" y2="572.6369"/></g><!--class DocumentEditor--><g class="entity" data-qualified-name="DocumentEditor" data-source-line="70" id="ent0024"><rect fill="#F1F1F1" height="194.6719" rx="2.5" ry="2.5" style="stroke:#181818;stroke-width:0.5;" width="339.6396" x="227.16" y="261.67"/><ellipse cx="335.7489" cy="277.67" fill="#ADD1B2" rx="11" ry="11" style="stroke:#181818;stroke-width:1;"/><path d="M338.7176,283.3106 Q338.1395,283.6075 337.4989,283.7481 Q336.8582,283.9044 336.1551,283.9044 Q333.6551,283.9044 332.327,282.2637 Q331.0145,280.6075 331.0145,277.4825 Q331.0145,274.3575 332.327,272.7012 Q333.6551,271.045 336.1551,271.045 Q336.8582,271.045 337.4989,271.2012 Q338.1551,271.3575 338.7176,271.6544 L338.7176,274.3731 Q338.0926,273.795 337.4989,273.5294 Q336.9051,273.2481 336.2801,273.2481 Q334.9364,273.2481 334.2489,274.3262 Q333.5614,275.3887 333.5614,277.4825 Q333.5614,279.5762 334.2489,280.6544 Q334.9364,281.7169 336.2801,281.7169 Q336.9051,281.7169 337.4989,281.4512 Q338.0926,281.17 338.7176,280.5919 L338.7176,283.3106 Z " fill="#000000"/><text fill="#000000" font-family="sans-serif" font-size="14" lengthAdjust="spacing" textLength="113.9619" x="356.2489" y="282.5167">DocumentEditor</text><line style="stroke:#181818;stroke-width:0.5;" x1="228.16" x2="565.7996" y1="293.67" y2="293.67"/><g data-visibility-modifier="PRIVATE_FIELD"><rect fill="none" height="6" style="stroke:#C82930;stroke-width:1;" width="6" x="235.16" y="304.3184"/></g><text fill="#000000" font-family="sans-serif" font-size="14" lengthAdjust="spacing" textLength="182.2256" x="247.16" y="310.6651">final Document document</text><g data-visibility-modifier="PRIVATE_FIELD"><rect fill="none" height="6" style="stroke:#C82930;stroke-width:1;" width="6" x="235.16" y="320.6153"/></g><text fill="#000000" font-family="sans-serif" font-size="14" lengthAdjust="spacing" textLength="313.6396" x="247.16" y="326.962">final Stack&lt;DocumentMemento&gt; undoStack</text><g data-visibility-modifier="PRIVATE_FIELD"><rect fill="none" height="6" style="stroke:#C82930;stroke-width:1;" width="6" x="235.16" y="336.9122"/></g><text fill="#000000" font-family="sans-serif" font-size="14" lengthAdjust="spacing" textLength="310.2627" x="247.16" y="343.2589">final Stack&lt;DocumentMemento&gt; redoStack</text><line style="stroke:#181818;stroke-width:0.5;" x1="228.16" x2="565.7996" y1="350.5606" y2="350.5606"/><g data-visibility-modifier="PUBLIC_METHOD"><ellipse cx="238.16" cy="364.2091" fill="#84BE84" rx="3" ry="3" style="stroke:#038048;stroke-width:1;"/></g><text fill="#000000" font-family="sans-serif" font-size="14" lengthAdjust="spacing" textLength="124.8857" x="247.16" y="367.5557">DocumentEditor()</text><g data-visibility-modifier="PUBLIC_METHOD"><ellipse cx="238.16" cy="380.5059" fill="#84BE84" rx="3" ry="3" style="stroke:#038048;stroke-width:1;"/></g><text fill="#000000" font-family="sans-serif" font-size="14" lengthAdjust="spacing" textLength="183.4219" x="247.16" y="383.8526">Document getDocument()</text><g data-visibility-modifier="PUBLIC_METHOD"><ellipse cx="238.16" cy="396.8028" fill="#84BE84" rx="3" ry="3" style="stroke:#038048;stroke-width:1;"/></g><text fill="#000000" font-family="sans-serif" font-size="14" lengthAdjust="spacing" textLength="247.4678" x="247.16" y="400.1495">void execute(Command command)</text><g data-visibility-modifier="PUBLIC_METHOD"><ellipse cx="238.16" cy="413.0997" fill="#84BE84" rx="3" ry="3" style="stroke:#038048;stroke-width:1;"/></g><text fill="#000000" font-family="sans-serif" font-size="14" lengthAdjust="spacing" textLength="80.1992" x="247.16" y="416.4464">void undo()</text><g data-visibility-modifier="PUBLIC_METHOD"><ellipse cx="238.16" cy="429.3966" fill="#84BE84" rx="3" ry="3" style="stroke:#038048;stroke-width:1;"/></g><text fill="#000000" font-family="sans-serif" font-size="14" lengthAdjust="spacing" textLength="76.8223" x="247.16" y="432.7432">void redo()</text><g data-visibility-modifier="PUBLIC_METHOD"><ellipse cx="238.16" cy="445.6934" fill="#84BE84" rx="3" ry="3" style="stroke:#038048;stroke-width:1;"/></g><text fill="#000000" font-family="sans-serif" font-size="14" lengthAdjust="spacing" textLength="204.6201" x="247.16" y="449.0401">StringProperty textProperty()</text></g><!--class MainApp--><g class="entity" data-qualified-name="MainApp" data-source-line="90" id="ent0028"><rect fill="#F1F1F1" height="194.6719" rx="2.5" ry="2.5" style="stroke:#181818;stroke-width:0.5;" width="312.8496" x="402.55" y="7"/><ellipse cx="524.3391" cy="23" fill="#ADD1B2" rx="11" ry="11" style="stroke:#181818;stroke-width:1;"/><path d="M527.3078,28.6406 Q526.7297,28.9375 526.0891,29.0781 Q525.4484,29.2344 524.7453,29.2344 Q522.2453,29.2344 520.9172,27.5938 Q519.6047,25.9375 519.6047,22.8125 Q519.6047,19.6875 520.9172,18.0313 Q522.2453,16.375 524.7453,16.375 Q525.4484,16.375 526.0891,16.5313 Q526.7453,16.6875 527.3078,16.9844 L527.3078,19.7031 Q526.6828,19.125 526.0891,18.8594 Q525.4953,18.5781 524.8703,18.5781 Q523.5266,18.5781 522.8391,19.6563 Q522.1516,20.7188 522.1516,22.8125 Q522.1516,24.9063 522.8391,25.9844 Q523.5266,27.0469 524.8703,27.0469 Q525.4953,27.0469 526.0891,26.7813 Q526.6828,26.5 527.3078,25.9219 L527.3078,28.6406 Z " fill="#000000"/><text fill="#000000" font-family="sans-serif" font-size="14" lengthAdjust="spacing" textLength="60.7715" x="544.8391" y="27.8467">MainApp</text><line style="stroke:#181818;stroke-width:0.5;" x1="403.55" x2="714.3996" y1="39" y2="39"/><g data-visibility-modifier="PRIVATE_FIELD"><rect fill="none" height="6" style="stroke:#C82930;stroke-width:1;" width="6" x="410.55" y="49.6484"/></g><text fill="#000000" font-family="sans-serif" font-size="14" lengthAdjust="spacing" textLength="172.4844" x="422.55" y="55.9951">static MainApp singleton</text><g data-visibility-modifier="PRIVATE_FIELD"><rect fill="none" height="6" style="stroke:#C82930;stroke-width:1;" width="6" x="410.55" y="65.9453"/></g><text fill="#000000" font-family="sans-serif" font-size="14" lengthAdjust="spacing" textLength="265.0908" x="422.55" y="72.292">final DocumentEditor documentEditor</text><g data-visibility-modifier="PRIVATE_FIELD"><rect fill="none" height="6" style="stroke:#C82930;stroke-width:1;" width="6" x="410.55" y="82.2422"/></g><text fill="#000000" font-family="sans-serif" font-size="14" lengthAdjust="spacing" textLength="207.5596" x="422.55" y="88.5889">final FileManager fileManager</text><line style="stroke:#181818;stroke-width:0.5;" x1="403.55" x2="714.3996" y1="95.8906" y2="95.8906"/><g data-visibility-modifier="PUBLIC_METHOD"><ellipse cx="413.55" cy="109.5391" fill="#84BE84" rx="3" ry="3" style="stroke:#038048;stroke-width:1;"/></g><text fill="#000000" font-family="sans-serif" font-size="14" lengthAdjust="spacing" textLength="71.6953" x="422.55" y="112.8857">MainApp()</text><g data-visibility-modifier="PUBLIC_METHOD"><ellipse cx="413.55" cy="125.8359" fill="#84BE84" rx="3" ry="3" style="stroke:#038048;stroke-width:1;"/></g><text fill="#000000" font-family="sans-serif" font-size="14" lengthAdjust="spacing" textLength="207.9902" x="422.55" y="129.1826">static MainApp getSingleton()</text><g data-visibility-modifier="PUBLIC_METHOD"><ellipse cx="413.55" cy="142.1328" fill="#84BE84" rx="3" ry="3" style="stroke:#038048;stroke-width:1;"/></g><text fill="#000000" font-family="sans-serif" font-size="14" lengthAdjust="spacing" textLength="286.8496" x="422.55" y="145.4795">void start(Stage stage) throws Exception</text><g data-visibility-modifier="PUBLIC_METHOD"><ellipse cx="413.55" cy="158.4297" fill="#84BE84" rx="3" ry="3" style="stroke:#038048;stroke-width:1;"/></g><text fill="#000000" font-family="sans-serif" font-size="14" lengthAdjust="spacing" textLength="210.54" x="422.55" y="161.7764">static void main(String[] args)</text><g data-visibility-modifier="PUBLIC_METHOD"><ellipse cx="413.55" cy="174.7266" fill="#84BE84" rx="3" ry="3" style="stroke:#038048;stroke-width:1;"/></g><text fill="#000000" font-family="sans-serif" font-size="14" lengthAdjust="spacing" textLength="209.9863" x="422.55" y="178.0732">FileManager getFileManager()</text><g data-visibility-modifier="PUBLIC_METHOD"><ellipse cx="413.55" cy="191.0234" fill="#84BE84" rx="3" ry="3" style="stroke:#038048;stroke-width:1;"/></g><text fill="#000000" font-family="sans-serif" font-size="14" lengthAdjust="spacing" textLength="266.2871" x="422.55" y="194.3701">DocumentEditor getDocumentEditor()</text></g><!--reverse link SaveStrategy to LosslessSave--><g class="link" data-entity-1="ent0004" data-entity-2="ent0005" data-link-type="extension" data-source-line="26" id="lnk7"><path codeLine="26" d="M858.4628,598.8369 C860.9228,617.5769 861.65,623.11 863.9,640.22" fill="none" id="SaveStrategy-backto-LosslessSave" style="stroke:#181818;stroke-width:1;"/><polygon fill="none" points="856.12,580.99,852.5138,599.6178,864.4117,598.056,856.12,580.99" style="stroke:#181818;stroke-width:1;"/></g><!--reverse link SaveStrategy to NoMarkdownSave--><g class="link" data-entity-1="ent0004" data-entity-2="ent0006" data-link-type="extension" data-source-line="27" id="lnk8"><path codeLine="27" d="M928.9484,589.4279 C965.0584,608.1579 994.06,623.21 1026.95,640.28" fill="none" id="SaveStrategy-backto-NoMarkdownSave" style="stroke:#181818;stroke-width:1;"/><polygon fill="none" points="912.97,581.14,926.1858,594.7541,931.7111,584.1018,912.97,581.14" style="stroke:#181818;stroke-width:1;"/></g><!--link FileManager to SaveStrategy--><g class="link" data-entity-1="ent0003" data-entity-2="ent0004" data-link-type="dependency" data-source-line="29" id="lnk9"><path codeLine="29" d="M760.1,416 C782.95,448.7 807.4926,483.8322 826.5326,511.0722" fill="none" id="FileManager-to-SaveStrategy" style="stroke:#181818;stroke-width:1;"/><polygon fill="#181818" points="829.97,515.99,828.0924,506.3218,827.1055,511.8919,821.5354,510.9049,829.97,515.99" style="stroke:#181818;stroke-width:1;"/></g><!--link ESaveStrategies to SaveStrategy--><g class="link" data-entity-1="ent0010" data-entity-2="ent0004" data-link-type="dependency" data-source-line="40" id="lnk11"><path codeLine="40" d="M954.03,432.23 C928.28,461.31 903.9067,488.8371 883.6467,511.7271" fill="none" id="ESaveStrategies-to-SaveStrategy" style="stroke:#181818;stroke-width:1;"/><polygon fill="#181818" points="879.67,516.22,888.6303,512.1318,882.9839,512.4759,882.6397,506.8295,879.67,516.22" style="stroke:#181818;stroke-width:1;"/></g><!--link ESaveStrategies to LosslessSave--><g class="link" data-entity-1="ent0010" data-entity-2="ent0005" data-link-type="dependency" data-source-line="41" id="lnk12"><path codeLine="41" d="M1018.98,432.39 C1016.5,477.97 1007.37,536.34 979.98,580.64 C964.29,606 942.8832,623.0001 919.4632,637.0701" fill="none" id="ESaveStrategies-to-LosslessSave" style="stroke:#181818;stroke-width:1;"/><polygon fill="#181818" points="914.32,640.16,924.0947,638.954,918.606,637.5851,919.9749,632.0964,914.32,640.16" style="stroke:#181818;stroke-width:1;"/></g><!--link ESaveStrategies to NoMarkdownSave--><g class="link" data-entity-1="ent0010" data-entity-2="ent0006" data-link-type="dependency" data-source-line="42" id="lnk13"><path codeLine="42" d="M1030.84,432.35 C1042.85,499.88 1059.009,590.7228 1066.809,634.5628" fill="none" id="ESaveStrategies-to-NoMarkdownSave" style="stroke:#181818;stroke-width:1;"/><polygon fill="#181818" points="1067.86,640.47,1070.2216,630.9085,1066.9842,635.5473,1062.3453,632.3098,1067.86,640.47" style="stroke:#181818;stroke-width:1;"/></g><!--reverse link Command to TypeCommand--><g class="link" data-entity-1="ent0014" data-entity-2="ent0015" data-link-type="extension" data-source-line="57" id="lnk18"><path codeLine="57" d="M472.7761,589.5469 C508.2361,608.2769 536.47,623.21 568.77,640.28" fill="none" id="Command-backto-TypeCommand" style="stroke:#181818;stroke-width:1;"/><polygon fill="none" points="456.86,581.14,469.9738,594.8523,475.5785,584.2415,456.86,581.14" style="stroke:#181818;stroke-width:1;"/></g><!--reverse link Command to DeleteCommand--><g class="link" data-entity-1="ent0014" data-entity-2="ent0016" data-link-type="extension" data-source-line="58" id="lnk19"><path codeLine="58" d="M292.726,587.2701 C241.016,606.0001 193.55,623.21 146.45,640.28" fill="none" id="Command-backto-DeleteCommand" style="stroke:#181818;stroke-width:1;"/><polygon fill="none" points="309.65,581.14,290.6826,581.6287,294.7694,592.9114,309.65,581.14" style="stroke:#181818;stroke-width:1;"/></g><!--reverse link Command to CopyCommand--><g class="link" data-entity-1="ent0014" data-entity-2="ent0020" data-link-type="extension" data-source-line="59" id="lnk21"><path codeLine="59" d="M414.7794,597.8814 C421.6794,616.6214 424.06,623.11 430.36,640.22" fill="none" id="Command-backto-CopyCommand" style="stroke:#181818;stroke-width:1;"/><polygon fill="none" points="408.56,580.99,409.1489,599.9545,420.4098,595.8083,408.56,580.99" style="stroke:#181818;stroke-width:1;"/></g><!--reverse link Command to PasteCommand--><g class="link" data-entity-1="ent0014" data-entity-2="ent0017" data-link-type="extension" data-source-line="60" id="lnk22"><path codeLine="60" d="M346.3074,592.6621 C324.3074,611.4021 310.56,623.11 290.48,640.22" fill="none" id="Command-backto-PasteCommand" style="stroke:#181818;stroke-width:1;"/><polygon fill="none" points="360.01,580.99,342.4167,588.0946,350.1981,597.2297,360.01,580.99" style="stroke:#181818;stroke-width:1;"/></g><!--link DocumentEditor to Document--><g class="link" data-entity-1="ent0024" data-entity-2="ent0002" data-link-type="dependency" data-source-line="82" id="lnk25"><path codeLine="82" d="M291.17,456.77 C267.68,478.26 248.837,495.4901 230.757,512.0301" fill="none" id="DocumentEditor-to-Document" style="stroke:#181818;stroke-width:1;"/><polygon fill="#181818" points="226.33,516.08,235.6704,512.9565,230.0192,512.7051,230.2705,507.0538,226.33,516.08" style="stroke:#181818;stroke-width:1;"/></g><!--link DocumentEditor to Command--><g class="link" data-entity-1="ent0024" data-entity-2="ent0014" data-link-type="dependency" data-source-line="83" id="lnk26"><path codeLine="83" d="M396.98,456.77 C396.98,478.26 396.98,493.54 396.98,510.08" fill="none" id="DocumentEditor-to-Command" style="stroke:#181818;stroke-width:1;"/><polygon fill="#181818" points="396.98,516.08,400.98,507.08,396.98,511.08,392.98,507.08,396.98,516.08" style="stroke:#181818;stroke-width:1;"/></g><!--link DocumentEditor to DocumentMemento--><g class="link" data-entity-1="ent0024" data-entity-2="ent0023" data-link-type="dependency" data-source-line="84" id="lnk27"><path codeLine="84" d="M511.55,456.77 C537,478.26 557.6055,495.6693 577.1955,512.2093" fill="none" id="DocumentEditor-to-DocumentMemento" style="stroke:#181818;stroke-width:1;"/><polygon fill="#181818" points="581.78,516.08,577.4837,507.2176,577.9596,512.8544,572.3228,513.3302,581.78,516.08" style="stroke:#181818;stroke-width:1;"/></g><!--link MainApp to DocumentEditor--><g class="link" data-entity-1="ent0028" data-entity-2="ent0024" data-link-type="dependency" data-source-line="102" id="lnk29"><path codeLine="102" d="M497.04,201.94 C484.53,221.45 474.6298,236.8999 462.1198,256.3999" fill="none" id="MainApp-to-DocumentEditor" style="stroke:#181818;stroke-width:1;"/><polygon fill="#181818" points="458.88,261.45,467.1065,256.0347,461.5799,257.2416,460.373,251.715,458.88,261.45" style="stroke:#181818;stroke-width:1;"/></g><!--link MainApp to FileManager--><g class="link" data-entity-1="ent0028" data-entity-2="ent0003" data-link-type="dependency" data-source-line="103" id="lnk30"><path codeLine="103" d="M620.92,201.94 C642.62,235.8 663.0215,267.619 681.8715,297.019" fill="none" id="MainApp-to-FileManager" style="stroke:#181818;stroke-width:1;"/><polygon fill="#181818" points="685.11,302.07,683.6196,292.3346,682.4113,297.8609,676.885,296.6525,685.11,302.07" style="stroke:#181818;stroke-width:1;"/></g><?plantuml-src ZLNDRjf04Bxp57CBA46vLsaa5DmqAZO8KrLHLLLRUs8s6A-rkmwnsrxwIdc4gE_LyL_ODGuD1zZvtPbllnbEu7t_Pt02xdpgp60wyMwlFfBuccCGCwLWAe9iYuc6dmE0SI0INGhlmDUI9z7Wz-18XXFmLyl9ohc-XSLajNAM7ga-y1XTbh089OGOOvJT8nGivUfSX46HQmW5A2sPneZp_zPdfgjALEm1_JeyB-iqnDASCgbC-yAKoU5K8Wk7ATFh4LdRxaj3cNWOYi1GZyh-EK4YxrY0rbrLCNqnPr0bBoFh3cP2gHYLAgCRbITS9ZUXs2MLSc0bllWr7jj1X-Pk0XEbyVZIHcM0IRO5nz1nL5Nzr07Cvhu_Sto_4RtvTtUo_3ITV_4gpHZyB4rZZlB2J7e9H1LwnIpGGhQE5MKWbQXrxh4jDYcjyWF2N-DmrDhg62tgmx32hLlgGKTz3XPYVGvTp8xn-chkkXDlQj2wVLudvDGntAFIi25OY1nRs0WoXUHr4oAB4uGmPd3z-UQC6XFn3oQVdtR0GMteeClp9cOxhWgnouFraKBsrBiIsorBmffr-8X1fdl9MlDhbQVOHBHZJfEeExe5KtlLeBsXufUPm3BOUIpJbKZpNeDzpp7ONSTrlDNSWFrp4ehp9TBAI6M11QY4fMejT4uhX2KPxP9DrNpsvaNdOlajccMYYI7MjhETczUkPwLc-HrFMBnVc-5-WzWUlcR1vg9pwoLar51bUck0n6x0QQUyPfXi4qIesxFby21u22s3sdSAwjy3lxBQm-Yo94jRmxUG8aL9JwFnKRT2uqV8TZ0jH_9b_VROMi8S2MimEiuf6iFw6tPviMCqcFMqvcUGSFfdIXYe8YWmUdxw-wUSJGnpkeWTIGerILp6aqcQMkme2SM35vCYM6XWHF8gWPgsGaiyy3Rt-zt-R3n1SwFrB9rYY15-My_XevApr4DYMeJbES8HwBKKEmNEOu2fvaOJBwcho2tb7zOK-FeDc8oKcTmidIemn5xUDdWOxBL8JZngsp6PqC1cceoB_W40?></g></svg>