<?plantuml 1.2026.0?><svg xmlns="http://www.w3.org/2000/svg" xmlns:xlink="http://www.w3.org/1999/xlink" contentStyleType="text/css" data-diagram-type="CLASS" height="711px" preserveAspectRatio="none" style="width:1281px;height:711px;background:#FFFFFF;" version="1.1" viewBox="0 0 1281 711" width="1281px" zoomAndPan="magnify"><defs/><g><!--class Document--><g class="entity" data-qualified-name="Document" data-source-line="4" id="ent0002"><rect fill="#F1F1F1" height="64.2969" rx="2.5" ry="2.5" style="stroke:#181818;stroke-width:0.5;" width="134.999" x="78.48" y="532.64"/><ellipse cx="107.1914" cy="548.64" fill="#ADD1B2" rx="11" ry="11" style="stroke:#181818;stroke-width:1;"/><path d="M110.1601,554.2806 Q109.582,554.5775 108.9414,554.7181 Q108.3008,554.8744 107.5976,554.8744 Q105.0976,554.8744 103.7695,553.2338 Q102.457,551.5775 102.457,548.4525 Q102.457,545.3275 103.7695,543.6713 Q105.0976,542.015 107.5976,542.015 Q108.3008,542.015 108.9414,542.1713 Q109.5976,542.3275 110.1601,542.6244 L110.1601,545.3431 Q109.5351,544.765 108.9414,544.4994 Q108.3476,544.2181 107.7226,544.2181 Q106.3789,544.2181 105.6914,545.2963 Q105.0039,546.3588 105.0039,548.4525 Q105.0039,550.5463 105.6914,551.6244 Q106.3789,552.6869 107.7226,552.6869 Q108.3476,552.6869 108.9414,552.4213 Q109.5351,552.14 110.1601,551.5619 L110.1601,554.2806 Z " fill="#000000"/><text fill="#000000" font-family="sans-serif" font-size="14" lengthAdjust="spacing" textLength="72.5293" x="124.2383" y="553.4867">Document</text><line style="stroke:#181818;stroke-width:0.5;" x1="79.48" x2="212.479" y1="564.64" y2="564.64"/><g data-visibility-modifier="PRIVATE_FIELD"><rect fill="none" height="6" style="stroke:#C82930;stroke-width:1;" width="6" x="86.48" y="575.2884"/></g><text fill="#000000" font-family="sans-serif" font-size="14" lengthAdjust="spacing" textLength="108.999" x="98.48" y="581.6351">content : String</text><line style="stroke:#181818;stroke-width:0.5;" x1="79.48" x2="212.479" y1="588.9369" y2="588.9369"/></g><!--class FileManager--><g class="entity" data-qualified-name="FileManager" data-source-line="12" id="ent0003"><rect fill="#F1F1F1" height="210.9688" rx="2.5" ry="2.5" style="stroke:#181818;stroke-width:0.5;" width="398.6611" x="555.65" y="261.67"/><ellipse cx="707.8248" cy="277.67" fill="#ADD1B2" rx="11" ry="11" style="stroke:#181818;stroke-width:1;"/><path d="M710.7936,283.3106 Q710.2154,283.6075 709.5748,283.7481 Q708.9342,283.9044 708.2311,283.9044 Q705.7311,283.9044 704.4029,282.2638 Q703.0904,280.6075 703.0904,277.4825 Q703.0904,274.3575 704.4029,272.7013 Q705.7311,271.045 708.2311,271.045 Q708.9342,271.045 709.5748,271.2013 Q710.2311,271.3575 710.7936,271.6544 L710.7936,274.3731 Q710.1686,273.795 709.5748,273.5294 Q708.9811,273.2481 708.3561,273.2481 Q707.0123,273.2481 706.3248,274.3263 Q705.6373,275.3888 705.6373,277.4825 Q705.6373,279.5763 706.3248,280.6544 Q707.0123,281.7169 708.3561,281.7169 Q708.9811,281.7169 709.5748,281.4513 Q710.1686,281.17 710.7936,280.5919 L710.7936,283.3106 Z " fill="#000000"/><text fill="#000000" font-family="sans-serif" font-size="14" lengthAdjust="spacing" textLength="85.8115" x="728.3248" y="282.5167">FileManager</text><line style="stroke:#181818;stroke-width:0.5;" x1="556.65" x2="953.3111" y1="293.67" y2="293.67"/><g data-visibility-modifier="PRIVATE_FIELD"><rect fill="none" height="6" style="stroke:#C82930;stroke-width:1;" width="6" x="563.65" y="304.3184"/></g><text fill="#000000" font-family="sans-serif" font-size="14" lengthAdjust="spacing" textLength="191.5566" x="575.65" y="310.6651">SaveStrategy saveStrategy</text><g data-visibility-modifier="PRIVATE_FIELD"><rect fill="none" height="6" style="stroke:#C82930;stroke-width:1;" width="6" x="563.65" y="320.6153"/></g><text fill="#000000" font-family="sans-serif" font-size="14" lengthAdjust="spacing" textLength="236.7354" x="575.65" y="326.962">StringProperty saveModeProperty</text><g data-visibility-modifier="PRIVATE_FIELD"><rect fill="none" height="6" style="stroke:#C82930;stroke-width:1;" width="6" x="563.65" y="336.9122"/></g><text fill="#000000" font-family="sans-serif" font-size="14" lengthAdjust="spacing" textLength="124.4346" x="575.65" y="343.2589">Path saveFilePath</text><line style="stroke:#181818;stroke-width:0.5;" x1="556.65" x2="953.3111" y1="350.5606" y2="350.5606"/><g data-visibility-modifier="PUBLIC_METHOD"><ellipse cx="566.65" cy="364.2091" fill="#84BE84" rx="3" ry="3" style="stroke:#038048;stroke-width:1;"/></g><text fill="#000000" font-family="sans-serif" font-size="14" lengthAdjust="spacing" textLength="359.3037" x="575.65" y="367.5557">void setSaveStrategy(SaveStrategy _saveStrategy)</text><g data-visibility-modifier="PUBLIC_METHOD"><ellipse cx="566.65" cy="380.5059" fill="#84BE84" rx="3" ry="3" style="stroke:#038048;stroke-width:1;"/></g><text fill="#000000" font-family="sans-serif" font-size="14" lengthAdjust="spacing" textLength="372.6611" x="575.65" y="383.8526">void setSaveStrategy(ESaveStrategies saveStrategy)</text><g data-visibility-modifier="PUBLIC_METHOD"><ellipse cx="566.65" cy="396.8028" fill="#84BE84" rx="3" ry="3" style="stroke:#038048;stroke-width:1;"/></g><text fill="#000000" font-family="sans-serif" font-size="14" lengthAdjust="spacing" textLength="245.1299" x="575.65" y="400.1495">void setSaveFilePath(Path filePath)</text><g data-visibility-modifier="PUBLIC_METHOD"><ellipse cx="566.65" cy="413.0997" fill="#84BE84" rx="3" ry="3" style="stroke:#038048;stroke-width:1;"/></g><text fill="#000000" font-family="sans-serif" font-size="14" lengthAdjust="spacing" textLength="180.2568" x="575.65" y="416.4464">String getSaveFileName()</text><g data-visibility-modifier="PUBLIC_METHOD"><ellipse cx="566.65" cy="429.3966" fill="#84BE84" rx="3" ry="3" style="stroke:#038048;stroke-width:1;"/></g><text fill="#000000" font-family="sans-serif" font-size="14" lengthAdjust="spacing" textLength="334.2773" x="575.65" y="432.7432">void save(Document document, Path savePath)</text><g data-visibility-modifier="PUBLIC_METHOD"><ellipse cx="566.65" cy="445.6934" fill="#84BE84" rx="3" ry="3" style="stroke:#038048;stroke-width:1;"/></g><text fill="#000000" font-family="sans-serif" font-size="14" lengthAdjust="spacing" textLength="328.5762" x="575.65" y="449.0401">void load(Document document, Path loadPath)</text><g data-visibility-modifier="PUBLIC_METHOD"><ellipse cx="566.65" cy="461.9903" fill="#84BE84" rx="3" ry="3" style="stroke:#038048;stroke-width:1;"/></g><text fill="#000000" font-family="sans-serif" font-size="14" lengthAdjust="spacing" textLength="247.6592" x="575.65" y="465.337">StringProperty saveModeProperty()</text></g><!--class SaveStrategy--><g class="entity" data-qualified-name="SaveStrategy" data-source-line="26" id="ent0004"><rect fill="#F1F1F1" height="64.2969" rx="2.5" ry="2.5" style="stroke:#181818;stroke-width:0.5;" width="221.7197" x="822.12" y="532.64"/><ellipse cx="881.5551" cy="548.64" fill="#B4A7E5" rx="11" ry="11" style="stroke:#181818;stroke-width:1;"/><path d="M877.4769,544.4056 L877.4769,542.2494 L884.8676,542.2494 L884.8676,544.4056 L882.3988,544.4056 L882.3988,552.4838 L884.8676,552.4838 L884.8676,554.64 L877.4769,554.64 L877.4769,552.4838 L879.9457,552.4838 L879.9457,544.4056 L877.4769,544.4056 Z " fill="#000000"/><text fill="#000000" font-family="sans-serif" font-size="14" font-style="italic" lengthAdjust="spacing" textLength="94.3496" x="902.0551" y="553.4867">SaveStrategy</text><line style="stroke:#181818;stroke-width:0.5;" x1="823.12" x2="1042.8397" y1="564.64" y2="564.64"/><line style="stroke:#181818;stroke-width:0.5;" x1="823.12" x2="1042.8397" y1="572.64" y2="572.64"/><g data-visibility-modifier="PUBLIC_METHOD"><ellipse cx="833.12" cy="586.2884" fill="#84BE84" rx="3" ry="3" style="stroke:#038048;stroke-width:1;"/></g><text fill="#000000" font-family="sans-serif" font-size="14" lengthAdjust="spacing" textLength="195.7197" x="842.12" y="589.6351">save(doc : Document, path)</text></g><!--class LosslessSave--><g class="entity" data-qualified-name="LosslessSave" data-source-line="30" id="ent0005"><rect fill="#F1F1F1" height="48" rx="2.5" ry="2.5" style="stroke:#181818;stroke-width:0.5;" width="124.4082" x="885.77" y="656.94"/><ellipse cx="900.77" cy="672.94" fill="#ADD1B2" rx="11" ry="11" style="stroke:#181818;stroke-width:1;"/><path d="M903.7388,678.5806 Q903.1606,678.8775 902.52,679.0181 Q901.8794,679.1744 901.1763,679.1744 Q898.6763,679.1744 897.3481,677.5338 Q896.0356,675.8775 896.0356,672.7525 Q896.0356,669.6275 897.3481,667.9713 Q898.6763,666.315 901.1763,666.315 Q901.8794,666.315 902.52,666.4713 Q903.1763,666.6275 903.7388,666.9244 L903.7388,669.6431 Q903.1138,669.065 902.52,668.7994 Q901.9263,668.5181 901.3013,668.5181 Q899.9575,668.5181 899.27,669.5963 Q898.5825,670.6588 898.5825,672.7525 Q898.5825,674.8463 899.27,675.9244 Q899.9575,676.9869 901.3013,676.9869 Q901.9263,676.9869 902.52,676.7213 Q903.1138,676.44 903.7388,675.8619 L903.7388,678.5806 Z " fill="#000000"/><text fill="#000000" font-family="sans-serif" font-size="14" lengthAdjust="spacing" textLength="92.4082" x="914.77" y="677.7867">LosslessSave</text><line style="stroke:#181818;stroke-width:0.5;" x1="886.77" x2="1009.1782" y1="688.94" y2="688.94"/><line style="stroke:#181818;stroke-width:0.5;" x1="886.77" x2="1009.1782" y1="696.94" y2="696.94"/></g><!--class NoMarkdownSave--><g class="entity" data-qualified-name="NoMarkdownSave" data-source-line="31" id="ent0006"><rect fill="#F1F1F1" height="48" rx="2.5" ry="2.5" style="stroke:#181818;stroke-width:0.5;" width="157.6992" x="1074.13" y="656.94"/><ellipse cx="1089.13" cy="672.94" fill="#ADD1B2" rx="11" ry="11" style="stroke:#181818;stroke-width:1;"/><path d="M1092.0988,678.5806 Q1091.5206,678.8775 1090.88,679.0181 Q1090.2394,679.1744 1089.5363,679.1744 Q1087.0363,679.1744 1085.7081,677.5338 Q1084.3956,675.8775 1084.3956,672.7525 Q1084.3956,669.6275 1085.7081,667.9713 Q1087.0363,666.315 1089.5363,666.315 Q1090.2394,666.315 1090.88,666.4713 Q1091.5363,666.6275 1092.0988,666.9244 L1092.0988,669.6431 Q1091.4738,669.065 1090.88,668.7994 Q1090.2863,668.5181 1089.6613,668.5181 Q1088.3175,668.5181 1087.63,669.5963 Q1086.9425,670.6588 1086.9425,672.7525 Q1086.9425,674.8463 1087.63,675.9244 Q1088.3175,676.9869 1089.6613,676.9869 Q1090.2863,676.9869 1090.88,676.7213 Q1091.4738,676.44 1092.0988,675.8619 L1092.0988,678.5806 Z " fill="#000000"/><text fill="#000000" font-family="sans-serif" font-size="14" lengthAdjust="spacing" textLength="125.6992" x="1103.13" y="677.7867">NoMarkdownSave</text><line style="stroke:#181818;stroke-width:0.5;" x1="1075.13" x2="1230.8292" y1="688.94" y2="688.94"/><line style="stroke:#181818;stroke-width:0.5;" x1="1075.13" x2="1230.8292" y1="696.94" y2="696.94"/></g><!--class ESaveStrategies--><g class="entity" data-qualified-name="ESaveStrategies" data-source-line="38" id="ent0010"><rect fill="#F1F1F1" height="145.7813" rx="2.5" ry="2.5" style="stroke:#181818;stroke-width:0.5;" width="285.998" x="988.98" y="294.27"/><ellipse cx="1070.3755" cy="310.27" fill="#EB937F" rx="11" ry="11" style="stroke:#181818;stroke-width:1;"/><path d="M1074.4849,316.27 L1066.7661,316.27 L1066.7661,303.8794 L1074.4849,303.8794 L1074.4849,306.0356 L1069.2193,306.0356 L1069.2193,308.7075 L1073.9849,308.7075 L1073.9849,310.8638 L1069.2193,310.8638 L1069.2193,314.1138 L1074.4849,314.1138 L1074.4849,316.27 Z " fill="#000000"/><text fill="#000000" font-family="sans-serif" font-size="14" lengthAdjust="spacing" textLength="114.707" x="1090.8755" y="315.1167">ESaveStrategies</text><line style="stroke:#181818;stroke-width:0.5;" x1="989.98" x2="1273.978" y1="326.27" y2="326.27"/><g data-visibility-modifier="PUBLIC_FIELD"><ellipse cx="999.98" cy="339.9184" fill="none" rx="3" ry="3" style="stroke:#038048;stroke-width:1;"/></g><text fill="#000000" font-family="sans-serif" font-size="14" lengthAdjust="spacing" textLength="71.0117" x="1008.98" y="343.2651">LOSSLESS</text><g data-visibility-modifier="PUBLIC_FIELD"><ellipse cx="999.98" cy="356.2153" fill="none" rx="3" ry="3" style="stroke:#038048;stroke-width:1;"/></g><text fill="#000000" font-family="sans-serif" font-size="14" lengthAdjust="spacing" textLength="115.1719" x="1008.98" y="359.562">NO_MARKDOWN</text><g data-visibility-modifier="PRIVATE_FIELD"><rect fill="none" height="6" style="stroke:#C82930;stroke-width:1;" width="6" x="996.98" y="369.5122"/></g><text fill="#000000" font-family="sans-serif" font-size="14" lengthAdjust="spacing" textLength="259.998" x="1008.98" y="375.8589">Supplier&lt;SaveStrategy&gt; constructor</text><g data-visibility-modifier="PRIVATE_FIELD"><rect fill="none" height="6" style="stroke:#C82930;stroke-width:1;" width="6" x="996.98" y="385.8091"/></g><text fill="#000000" font-family="sans-serif" font-size="14" lengthAdjust="spacing" textLength="130.0537" x="1008.98" y="392.1557">String prettyName</text><line style="stroke:#181818;stroke-width:0.5;" x1="989.98" x2="1273.978" y1="399.4575" y2="399.4575"/><g data-visibility-modifier="PUBLIC_METHOD"><ellipse cx="999.98" cy="413.1059" fill="#84BE84" rx="3" ry="3" style="stroke:#038048;stroke-width:1;"/></g><text fill="#000000" font-family="sans-serif" font-size="14" lengthAdjust="spacing" textLength="154.4717" x="1008.98" y="416.4526">SaveStrategy create()</text><g data-visibility-modifier="PUBLIC_METHOD"><ellipse cx="999.98" cy="429.4028" fill="#84BE84" rx="3" ry="3" style="stroke:#038048;stroke-width:1;"/></g><text fill="#000000" font-family="sans-serif" font-size="14" lengthAdjust="spacing" textLength="112.9912" x="1008.98" y="432.7495">String toString()</text></g><!--class Command--><g class="entity" data-qualified-name="Command" data-source-line="56" id="ent0014"><rect fill="#F1F1F1" height="64.2969" rx="2.5" ry="2.5" style="stroke:#181818;stroke-width:0.5;" width="204.4043" x="248.77" y="532.64"/><ellipse cx="310.7446" cy="548.64" fill="#B4A7E5" rx="11" ry="11" style="stroke:#181818;stroke-width:1;"/><path d="M306.6665,544.4056 L306.6665,542.2494 L314.0571,542.2494 L314.0571,544.4056 L311.5884,544.4056 L311.5884,552.4838 L314.0571,552.4838 L314.0571,554.64 L306.6665,554.64 L306.6665,552.4838 L309.1352,552.4838 L309.1352,544.4056 L306.6665,544.4056 Z " fill="#000000"/><text fill="#000000" font-family="sans-serif" font-size="14" font-style="italic" lengthAdjust="spacing" textLength="71.9551" x="331.2446" y="553.4867">Command</text><line style="stroke:#181818;stroke-width:0.5;" x1="249.77" x2="452.1743" y1="564.64" y2="564.64"/><line style="stroke:#181818;stroke-width:0.5;" x1="249.77" x2="452.1743" y1="572.64" y2="572.64"/><g data-visibility-modifier="PUBLIC_METHOD"><ellipse cx="259.77" cy="586.2884" fill="#84BE84" rx="3" ry="3" style="stroke:#038048;stroke-width:1;"/></g><text fill="#000000" font-family="sans-serif" font-size="14" lengthAdjust="spacing" textLength="178.4043" x="268.77" y="589.6351">execute(doc : Document)</text></g><!--class TypeCommand--><g class="entity" data-qualified-name="TypeCommand" data-source-line="60" id="ent0015"><rect fill="#F1F1F1" height="48" rx="2.5" ry="2.5" style="stroke:#181818;stroke-width:0.5;" width="138.292" x="543.83" y="656.94"/><ellipse cx="558.83" cy="672.94" fill="#ADD1B2" rx="11" ry="11" style="stroke:#181818;stroke-width:1;"/><path d="M561.7988,678.5806 Q561.2206,678.8775 560.58,679.0181 Q559.9394,679.1744 559.2363,679.1744 Q556.7363,679.1744 555.4081,677.5338 Q554.0956,675.8775 554.0956,672.7525 Q554.0956,669.6275 555.4081,667.9713 Q556.7363,666.315 559.2363,666.315 Q559.9394,666.315 560.58,666.4713 Q561.2363,666.6275 561.7988,666.9244 L561.7988,669.6431 Q561.1738,669.065 560.58,668.7994 Q559.9863,668.5181 559.3613,668.5181 Q558.0175,668.5181 557.33,669.5963 Q556.6425,670.6588 556.6425,672.7525 Q556.6425,674.8463 557.33,675.9244 Q558.0175,676.9869 559.3613,676.9869 Q559.9863,676.9869 560.58,676.7213 Q561.1738,676.44 561.7988,675.8619 L561.7988,678.5806 Z " fill="#000000"/><text fill="#000000" font-family="sans-serif" font-size="14" lengthAdjust="spacing" textLength="106.292" x="572.83" y="677.7867">TypeCommand</text><line style="stroke:#181818;stroke-width:0.5;" x1="544.83" x2="681.122" y1="688.94" y2="688.94"/><line style="stroke:#181818;stroke-width:0.5;" x1="544.83" x2="681.122" y1="696.94" y2="696.94"/></g><!--class DeleteCommand--><g class="entity" data-qualified-name="DeleteCommand" data-source-line="61" id="ent0016"><rect fill="#F1F1F1" height="48" rx="2.5" ry="2.5" style="stroke:#181818;stroke-width:0.5;" width="149.9541" x="7" y="656.94"/><ellipse cx="22" cy="672.94" fill="#ADD1B2" rx="11" ry="11" style="stroke:#181818;stroke-width:1;"/><path d="M24.9688,678.5806 Q24.3906,678.8775 23.75,679.0181 Q23.1094,679.1744 22.4063,679.1744 Q19.9063,679.1744 18.5781,677.5338 Q17.2656,675.8775 17.2656,672.7525 Q17.2656,669.6275 18.5781,667.9713 Q19.9063,666.315 22.4063,666.315 Q23.1094,666.315 23.75,666.4713 Q24.4063,666.6275 24.9688,666.9244 L24.9688,669.6431 Q24.3438,669.065 23.75,668.7994 Q23.1563,668.5181 22.5313,668.5181 Q21.1875,668.5181 20.5,669.5963 Q19.8125,670.6588 19.8125,672.7525 Q19.8125,674.8463 20.5,675.9244 Q21.1875,676.9869 22.5313,676.9869 Q23.1563,676.9869 23.75,676.7213 Q24.3438,676.44 24.9688,675.8619 L24.9688,678.5806 Z " fill="#000000"/><text fill="#000000" font-family="sans-serif" font-size="14" lengthAdjust="spacing" textLength="117.9541" x="36" y="677.7867">DeleteCommand</text><line style="stroke:#181818;stroke-width:0.5;" x1="8" x2="155.9541" y1="688.94" y2="688.94"/><line style="stroke:#181818;stroke-width:0.5;" x1="8" x2="155.9541" y1="696.94" y2="696.94"/></g><!--class PasteCommand--><g class="entity" data-qualified-name="PasteCommand" data-source-line="62" id="ent0017"><rect fill="#F1F1F1" height="48" rx="2.5" ry="2.5" style="stroke:#181818;stroke-width:0.5;" width="142.373" x="191.79" y="656.94"/><ellipse cx="206.79" cy="672.94" fill="#ADD1B2" rx="11" ry="11" style="stroke:#181818;stroke-width:1;"/><path d="M209.7588,678.5806 Q209.1806,678.8775 208.54,679.0181 Q207.8994,679.1744 207.1963,679.1744 Q204.6963,679.1744 203.3681,677.5338 Q202.0556,675.8775 202.0556,672.7525 Q202.0556,669.6275 203.3681,667.9713 Q204.6963,666.315 207.1963,666.315 Q207.8994,666.315 208.54,666.4713 Q209.1963,666.6275 209.7588,666.9244 L209.7588,669.6431 Q209.1338,669.065 208.54,668.7994 Q207.9463,668.5181 207.3213,668.5181 Q205.9775,668.5181 205.29,669.5963 Q204.6025,670.6588 204.6025,672.7525 Q204.6025,674.8463 205.29,675.9244 Q205.9775,676.9869 207.3213,676.9869 Q207.9463,676.9869 208.54,676.7213 Q209.1338,676.44 209.7588,675.8619 L209.7588,678.5806 Z " fill="#000000"/><text fill="#000000" font-family="sans-serif" font-size="14" lengthAdjust="spacing" textLength="110.373" x="220.79" y="677.7867">PasteCommand</text><line style="stroke:#181818;stroke-width:0.5;" x1="192.79" x2="333.163" y1="688.94" y2="688.94"/><line style="stroke:#181818;stroke-width:0.5;" x1="192.79" x2="333.163" y1="696.94" y2="696.94"/></g><!--class CopyCommand--><g class="entity" data-qualified-name="CopyCommand" data-source-line="66" id="ent0020"><rect fill="#F1F1F1" height="48" rx="2.5" ry="2.5" style="stroke:#181818;stroke-width:0.5;" width="139.4678" x="369.24" y="656.94"/><ellipse cx="384.24" cy="672.94" fill="#ADD1B2" rx="11" ry="11" style="stroke:#181818;stroke-width:1;"/><path d="M387.2088,678.5806 Q386.6306,678.8775 385.99,679.0181 Q385.3494,679.1744 384.6463,679.1744 Q382.1463,679.1744 380.8181,677.5338 Q379.5056,675.8775 379.5056,672.7525 Q379.5056,669.6275 380.8181,667.9713 Q382.1463,666.315 384.6463,666.315 Q385.3494,666.315 385.99,666.4713 Q386.6463,666.6275 387.2088,666.9244 L387.2088,669.6431 Q386.5838,669.065 385.99,668.7994 Q385.3963,668.5181 384.7713,668.5181 Q383.4275,668.5181 382.74,669.5963 Q382.0525,670.6588 382.0525,672.7525 Q382.0525,674.8463 382.74,675.9244 Q383.4275,676.9869 384.7713,676.9869 Q385.3963,676.9869 385.99,676.7213 Q386.5838,676.44 387.2088,675.8619 L387.2088,678.5806 Z " fill="#000000"/><text fill="#000000" font-family="sans-serif" font-size="14" lengthAdjust="spacing" textLength="107.4678" x="398.24" y="677.7867">CopyCommand</text><line style="stroke:#181818;stroke-width:0.5;" x1="370.24" x2="507.7078" y1="688.94" y2="688.94"/><line style="stroke:#181818;stroke-width:0.5;" x1="370.24" x2="507.7078" y1="696.94" y2="696.94"/></g><!--class DocumentMemento--><g class="entity" data-qualified-name="DocumentMemento" data-source-line="73" id="ent0023"><rect fill="#F1F1F1" height="64.2969" rx="2.5" ry="2.5" style="stroke:#181818;stroke-width:0.5;" width="170.4004" x="487.78" y="532.64"/><ellipse cx="502.78" cy="548.64" fill="#ADD1B2" rx="11" ry="11" style="stroke:#181818;stroke-width:1;"/><path d="M505.7488,554.2806 Q505.1706,554.5775 504.53,554.7181 Q503.8894,554.8744 503.1863,554.8744 Q500.6863,554.8744 499.3581,553.2338 Q498.0456,551.5775 498.0456,548.4525 Q498.0456,545.3275 499.3581,543.6713 Q500.6863,542.015 503.1863,542.015 Q503.8894,542.015 504.53,542.1713 Q505.1863,542.3275 505.7488,542.6244 L505.7488,545.3431 Q505.1238,544.765 504.53,544.4994 Q503.9363,544.2181 503.3113,544.2181 Q501.9675,544.2181 501.28,545.2963 Q500.5925,546.3588 500.5925,548.4525 Q500.5925,550.5463 501.28,551.6244 Q501.9675,552.6869 503.3113,552.6869 Q503.9363,552.6869 504.53,552.4213 Q505.1238,552.14 505.7488,551.5619 L505.7488,554.2806 Z " fill="#000000"/><text fill="#000000" font-family="sans-serif" font-size="14" lengthAdjust="spacing" textLength="138.4004" x="516.78" y="553.4867">DocumentMemento</text><line style="stroke:#181818;stroke-width:0.5;" x1="488.78" x2="657.1804" y1="564.64" y2="564.64"/><g data-visibility-modifier="PRIVATE_FIELD"><rect fill="none" height="6" style="stroke:#C82930;stroke-width:1;" width="6" x="495.78" y="575.2884"/></g><text fill="#000000" font-family="sans-serif" font-size="14" lengthAdjust="spacing" textLength="90.8633" x="507.78" y="581.6351">state : String</text><line style="stroke:#181818;stroke-width:0.5;" x1="488.78" x2="657.1804" y1="588.9369" y2="588.9369"/></g><!--class DocumentEditor--><g class="entity" data-qualified-name="DocumentEditor" data-source-line="77" id="ent0024"><rect fill="#F1F1F1" height="194.6719" rx="2.5" ry="2.5" style="stroke:#181818;stroke-width:0.5;" width="339.6396" x="181.16" y="269.82"/><ellipse cx="289.7489" cy="285.82" fill="#ADD1B2" rx="11" ry="11" style="stroke:#181818;stroke-width:1;"/><path d="M292.7176,291.4606 Q292.1395,291.7575 291.4989,291.8981 Q290.8582,292.0544 290.1551,292.0544 Q287.6551,292.0544 286.327,290.4138 Q285.0145,288.7575 285.0145,285.6325 Q285.0145,282.5075 286.327,280.8513 Q287.6551,279.195 290.1551,279.195 Q290.8582,279.195 291.4989,279.3513 Q292.1551,279.5075 292.7176,279.8044 L292.7176,282.5231 Q292.0926,281.945 291.4989,281.6794 Q290.9051,281.3981 290.2801,281.3981 Q288.9364,281.3981 288.2489,282.4763 Q287.5614,283.5388 287.5614,285.6325 Q287.5614,287.7263 288.2489,288.8044 Q288.9364,289.8669 290.2801,289.8669 Q290.9051,289.8669 291.4989,289.6013 Q292.0926,289.32 292.7176,288.7419 L292.7176,291.4606 Z " fill="#000000"/><text fill="#000000" font-family="sans-serif" font-size="14" lengthAdjust="spacing" textLength="113.9619" x="310.2489" y="290.6667">DocumentEditor</text><line style="stroke:#181818;stroke-width:0.5;" x1="182.16" x2="519.7996" y1="301.82" y2="301.82"/><g data-visibility-modifier="PRIVATE_FIELD"><rect fill="none" height="6" style="stroke:#C82930;stroke-width:1;" width="6" x="189.16" y="312.4684"/></g><text fill="#000000" font-family="sans-serif" font-size="14" lengthAdjust="spacing" textLength="182.2256" x="201.16" y="318.8151">final Document document</text><g data-visibility-modifier="PRIVATE_FIELD"><rect fill="none" height="6" style="stroke:#C82930;stroke-width:1;" width="6" x="189.16" y="328.7653"/></g><text fill="#000000" font-family="sans-serif" font-size="14" lengthAdjust="spacing" textLength="313.6396" x="201.16" y="335.112">final Stack&lt;DocumentMemento&gt; undoStack</text><g data-visibility-modifier="PRIVATE_FIELD"><rect fill="none" height="6" style="stroke:#C82930;stroke-width:1;" width="6" x="189.16" y="345.0622"/></g><text fill="#000000" font-family="sans-serif" font-size="14" lengthAdjust="spacing" textLength="310.2627" x="201.16" y="351.4089">final Stack&lt;DocumentMemento&gt; redoStack</text><line style="stroke:#181818;stroke-width:0.5;" x1="182.16" x2="519.7996" y1="358.7106" y2="358.7106"/><g data-visibility-modifier="PUBLIC_METHOD"><ellipse cx="192.16" cy="372.3591" fill="#84BE84" rx="3" ry="3" style="stroke:#038048;stroke-width:1;"/></g><text fill="#000000" font-family="sans-serif" font-size="14" lengthAdjust="spacing" textLength="124.8857" x="201.16" y="375.7057">DocumentEditor()</text><g data-visibility-modifier="PUBLIC_METHOD"><ellipse cx="192.16" cy="388.6559" fill="#84BE84" rx="3" ry="3" style="stroke:#038048;stroke-width:1;"/></g><text fill="#000000" font-family="sans-serif" font-size="14" lengthAdjust="spacing" textLength="183.4219" x="201.16" y="392.0026">Document getDocument()</text><g data-visibility-modifier="PUBLIC_METHOD"><ellipse cx="192.16" cy="404.9528" fill="#84BE84" rx="3" ry="3" style="stroke:#038048;stroke-width:1;"/></g><text fill="#000000" font-family="sans-serif" font-size="14" lengthAdjust="spacing" textLength="247.4678" x="201.16" y="408.2995">void execute(Command command)</text><g data-visibility-modifier="PUBLIC_METHOD"><ellipse cx="192.16" cy="421.2497" fill="#84BE84" rx="3" ry="3" style="stroke:#038048;stroke-width:1;"/></g><text fill="#000000" font-family="sans-serif" font-size="14" lengthAdjust="spacing" textLength="80.1992" x="201.16" y="424.5964">void undo()</text><g data-visibility-modifier="PUBLIC_METHOD"><ellipse cx="192.16" cy="437.5466" fill="#84BE84" rx="3" ry="3" style="stroke:#038048;stroke-width:1;"/></g><text fill="#000000" font-family="sans-serif" font-size="14" lengthAdjust="spacing" textLength="76.8223" x="201.16" y="440.8932">void redo()</text><g data-visibility-modifier="PUBLIC_METHOD"><ellipse cx="192.16" cy="453.8434" fill="#84BE84" rx="3" ry="3" style="stroke:#038048;stroke-width:1;"/></g><text fill="#000000" font-family="sans-serif" font-size="14" lengthAdjust="spacing" textLength="204.6201" x="201.16" y="457.1901">StringProperty textProperty()</text></g><!--class MainApp--><g class="entity" data-qualified-name="MainApp" data-source-line="97" id="ent0028"><rect fill="#F1F1F1" height="194.6719" rx="2.5" ry="2.5" style="stroke:#181818;stroke-width:0.5;" width="312.8496" x="396.55" y="7"/><ellipse cx="518.3391" cy="23" fill="#ADD1B2" rx="11" ry="11" style="stroke:#181818;stroke-width:1;"/><path d="M521.3078,28.6406 Q520.7297,28.9375 520.0891,29.0781 Q519.4484,29.2344 518.7453,29.2344 Q516.2453,29.2344 514.9172,27.5938 Q513.6047,25.9375 513.6047,22.8125 Q513.6047,19.6875 514.9172,18.0313 Q516.2453,16.375 518.7453,16.375 Q519.4484,16.375 520.0891,16.5313 Q520.7453,16.6875 521.3078,16.9844 L521.3078,19.7031 Q520.6828,19.125 520.0891,18.8594 Q519.4953,18.5781 518.8703,18.5781 Q517.5266,18.5781 516.8391,19.6563 Q516.1516,20.7188 516.1516,22.8125 Q516.1516,24.9063 516.8391,25.9844 Q517.5266,27.0469 518.8703,27.0469 Q519.4953,27.0469 520.0891,26.7813 Q520.6828,26.5 521.3078,25.9219 L521.3078,28.6406 Z " fill="#000000"/><text fill="#000000" font-family="sans-serif" font-size="14" lengthAdjust="spacing" textLength="60.7715" x="538.8391" y="27.8467">MainApp</text><line style="stroke:#181818;stroke-width:0.5;" x1="397.55" x2="708.3996" y1="39" y2="39"/><g data-visibility-modifier="PRIVATE_FIELD"><rect fill="none" height="6" style="stroke:#C82930;stroke-width:1;" width="6" x="404.55" y="49.6484"/></g><text fill="#000000" font-family="sans-serif" font-size="14" lengthAdjust="spacing" textLength="172.4844" x="416.55" y="55.9951">static MainApp singleton</text><g data-visibility-modifier="PRIVATE_FIELD"><rect fill="none" height="6" style="stroke:#C82930;stroke-width:1;" width="6" x="404.55" y="65.9453"/></g><text fill="#000000" font-family="sans-serif" font-size="14" lengthAdjust="spacing" textLength="265.0908" x="416.55" y="72.292">final DocumentEditor documentEditor</text><g data-visibility-modifier="PRIVATE_FIELD"><rect fill="none" height="6" style="stroke:#C82930;stroke-width:1;" width="6" x="404.55" y="82.2422"/></g><text fill="#000000" font-family="sans-serif" font-size="14" lengthAdjust="spacing" textLength="207.5596" x="416.55" y="88.5889">final FileManager fileManager</text><line style="stroke:#181818;stroke-width:0.5;" x1="397.55" x2="708.3996" y1="95.8906" y2="95.8906"/><g data-visibility-modifier="PUBLIC_METHOD"><ellipse cx="407.55" cy="109.5391" fill="#84BE84" rx="3" ry="3" style="stroke:#038048;stroke-width:1;"/></g><text fill="#000000" font-family="sans-serif" font-size="14" lengthAdjust="spacing" textLength="71.6953" x="416.55" y="112.8857">MainApp()</text><g data-visibility-modifier="PUBLIC_METHOD"><ellipse cx="407.55" cy="125.8359" fill="#84BE84" rx="3" ry="3" style="stroke:#038048;stroke-width:1;"/></g><text fill="#000000" font-family="sans-serif" font-size="14" lengthAdjust="spacing" textLength="207.9902" x="416.55" y="129.1826">static MainApp getSingleton()</text><g data-visibility-modifier="PUBLIC_METHOD"><ellipse cx="407.55" cy="142.1328" fill="#84BE84" rx="3" ry="3" style="stroke:#038048;stroke-width:1;"/></g><text fill="#000000" font-family="sans-serif" font-size="14" lengthAdjust="spacing" textLength="286.8496" x="416.55" y="145.4795">void start(Stage stage) throws Exception</text><g data-visibility-modifier="PUBLIC_METHOD"><ellipse cx="407.55" cy="158.4297" fill="#84BE84" rx="3" ry="3" style="stroke:#038048;stroke-width:1;"/></g><text fill="#000000" font-family="sans-serif" font-size="14" lengthAdjust="spacing" textLength="210.54" x="416.55" y="161.7764">static void main(String[] args)</text><g data-visibility-modifier="PUBLIC_METHOD"><ellipse cx="407.55" cy="174.7266" fill="#84BE84" rx="3" ry="3" style="stroke:#038048;stroke-width:1;"/></g><text fill="#000000" font-family="sans-serif" font-size="14" lengthAdjust="spacing" textLength="209.9863" x="416.55" y="178.0732">FileManager getFileManager()</text><g data-visibility-modifier="PUBLIC_METHOD"><ellipse cx="407.55" cy="191.0234" fill="#84BE84" rx="3" ry="3" style="stroke:#038048;stroke-width:1;"/></g><text fill="#000000" font-family="sans-serif" font-size="14" lengthAdjust="spacing" textLength="266.2871" x="416.55" y="194.3701">DocumentEditor getDocumentEditor()</text></g><!--reverse link SaveStrategy to LosslessSave--><g class="link" data-entity-1="ent0004" data-entity-2="ent0005" data-link-type="extension" data-source-line="33" id="lnk7"><path codeLine="33" d="M939.4628,615.1369 C941.9228,633.8769 942.65,639.41 944.9,656.52" fill="none" id="SaveStrategy-backto-LosslessSave" style="stroke:#181818;stroke-width:1;"/><polygon fill="none" points="937.12,597.29,933.5138,615.9178,945.4117,614.356,937.12,597.29" style="stroke:#181818;stroke-width:1;"/></g><!--reverse link SaveStrategy to NoMarkdownSave--><g class="link" data-entity-1="ent0004" data-entity-2="ent0006" data-link-type="extension" data-source-line="34" id="lnk8"><path codeLine="34" d="M1009.9484,605.7279 C1046.0584,624.4579 1075.06,639.51 1107.95,656.58" fill="none" id="SaveStrategy-backto-NoMarkdownSave" style="stroke:#181818;stroke-width:1;"/><polygon fill="none" points="993.97,597.44,1007.1858,611.0541,1012.7111,600.4018,993.97,597.44" style="stroke:#181818;stroke-width:1;"/></g><!--link FileManager to SaveStrategy--><g class="link" data-entity-1="ent0003" data-entity-2="ent0004" data-link-type="dependency" data-source-line="36" id="lnk9"><path codeLine="36" d="M850.49,473.13 C870.12,494.71 885.2807,511.3733 900.2207,527.7833" fill="none" id="FileManager-to-SaveStrategy" style="stroke:#181818;stroke-width:1;"/><polygon fill="#181818" points="904.26,532.22,901.1589,522.8721,900.8939,528.5227,895.2433,528.2578,904.26,532.22" style="stroke:#181818;stroke-width:1;"/></g><!--link ESaveStrategies to SaveStrategy--><g class="link" data-entity-1="ent0010" data-entity-2="ent0004" data-link-type="dependency" data-source-line="47" id="lnk11"><path codeLine="47" d="M1058.44,440.45 C1026.22,472.12 994.379,503.4341 969.199,528.1841" fill="none" id="ESaveStrategies-to-SaveStrategy" style="stroke:#181818;stroke-width:1;"/><polygon fill="#181818" points="964.92,532.39,974.1425,528.9338,968.4858,528.885,968.5346,523.2284,964.92,532.39" style="stroke:#181818;stroke-width:1;"/></g><!--link ESaveStrategies to LosslessSave--><g class="link" data-entity-1="ent0010" data-entity-2="ent0005" data-link-type="dependency" data-source-line="48" id="lnk12"><path codeLine="48" d="M1121.65,440.43 C1112.05,488.28 1094.04,550.54 1060.98,596.94 C1043.32,621.72 1021.0827,638.9498 997.7027,653.3098" fill="none" id="ESaveStrategies-to-LosslessSave" style="stroke:#181818;stroke-width:1;"/><polygon fill="#181818" points="992.59,656.45,1002.3524,655.1481,996.8505,653.8332,998.1655,648.3313,992.59,656.45" style="stroke:#181818;stroke-width:1;"/></g><!--link ESaveStrategies to NoMarkdownSave--><g class="link" data-entity-1="ent0010" data-entity-2="ent0006" data-link-type="dependency" data-source-line="49" id="lnk13"><path codeLine="49" d="M1136.85,440.47 C1141.54,510.09 1147.9466,605.2936 1150.9966,650.5536" fill="none" id="ESaveStrategies-to-NoMarkdownSave" style="stroke:#181818;stroke-width:1;"/><polygon fill="#181818" points="1151.4,656.54,1154.7858,647.2914,1151.0638,651.5513,1146.8039,647.8293,1151.4,656.54" style="stroke:#181818;stroke-width:1;"/></g><!--reverse link Command to TypeCommand--><g class="link" data-entity-1="ent0014" data-entity-2="ent0015" data-link-type="extension" data-source-line="64" id="lnk18"><path codeLine="64" d="M440.113,604.6267 C483.123,623.3567 520.18,639.51 559.35,656.58" fill="none" id="Command-backto-TypeCommand" style="stroke:#181818;stroke-width:1;"/><polygon fill="none" points="423.61,597.44,437.7175,610.1278,442.5086,599.1257,423.61,597.44" style="stroke:#181818;stroke-width:1;"/></g><!--reverse link Command to DeleteCommand--><g class="link" data-entity-1="ent0014" data-entity-2="ent0016" data-link-type="extension" data-source-line="65" id="lnk19"><path codeLine="65" d="M259.8289,604.4685 C215.6689,623.1985 177.25,639.51 137.03,656.58" fill="none" id="Command-backto-DeleteCommand" style="stroke:#181818;stroke-width:1;"/><polygon fill="none" points="276.4,597.44,257.4861,598.9448,262.1717,609.9921,276.4,597.44" style="stroke:#181818;stroke-width:1;"/></g><!--reverse link Command to CopyCommand--><g class="link" data-entity-1="ent0014" data-entity-2="ent0020" data-link-type="extension" data-source-line="66" id="lnk21"><path codeLine="66" d="M386.2466,611.5482 C400.6866,630.2882 407.73,639.41 420.92,656.52" fill="none" id="Command-backto-CopyCommand" style="stroke:#181818;stroke-width:1;"/><polygon fill="none" points="375.26,597.29,381.4938,615.2104,390.9993,607.886,375.26,597.29" style="stroke:#181818;stroke-width:1;"/></g><!--reverse link Command to PasteCommand--><g class="link" data-entity-1="ent0014" data-entity-2="ent0017" data-link-type="extension" data-source-line="67" id="lnk22"><path codeLine="67" d="M315.7087,611.5445 C301.2587,630.2845 294.22,639.41 281.04,656.52" fill="none" id="Command-backto-PasteCommand" style="stroke:#181818;stroke-width:1;"/><polygon fill="none" points="326.7,597.29,310.9572,607.8807,320.4602,615.2083,326.7,597.29" style="stroke:#181818;stroke-width:1;"/></g><!--link DocumentEditor to Document--><g class="link" data-entity-1="ent0024" data-entity-2="ent0002" data-link-type="dependency" data-source-line="89" id="lnk25"><path codeLine="89" d="M249.68,464.83 C224.06,489.28 202.6699,509.6869 183.2599,528.2169" fill="none" id="DocumentEditor-to-Document" style="stroke:#181818;stroke-width:1;"/><polygon fill="#181818" points="178.92,532.36,188.1919,529.0386,182.5366,528.9074,182.6677,523.2521,178.92,532.36" style="stroke:#181818;stroke-width:1;"/></g><!--link DocumentEditor to Command--><g class="link" data-entity-1="ent0024" data-entity-2="ent0014" data-link-type="dependency" data-source-line="90" id="lnk26"><path codeLine="90" d="M350.98,464.83 C350.98,489.28 350.98,507.83 350.98,526.36" fill="none" id="DocumentEditor-to-Command" style="stroke:#181818;stroke-width:1;"/><polygon fill="#181818" points="350.98,532.36,354.98,523.36,350.98,527.36,346.98,523.36,350.98,532.36" style="stroke:#181818;stroke-width:1;"/></g><!--link DocumentEditor to DocumentMemento--><g class="link" data-entity-1="ent0024" data-entity-2="ent0023" data-link-type="dependency" data-source-line="91" id="lnk27"><path codeLine="91" d="M460.68,464.83 C488.42,489.28 511.7782,509.8634 532.8082,528.3934" fill="none" id="DocumentEditor-to-DocumentMemento" style="stroke:#181818;stroke-width:1;"/><polygon fill="#181818" points="537.31,532.36,533.2017,523.4089,533.5585,529.0545,527.9129,529.4113,537.31,532.36" style="stroke:#181818;stroke-width:1;"/></g><!--link MainApp to DocumentEditor--><g class="link" data-entity-1="ent0028" data-entity-2="ent0024" data-link-type="dependency" data-source-line="109" id="lnk29"><path codeLine="109" d="M478.05,202.09 C460.98,224.12 446.5236,242.7961 429.4636,264.8261" fill="none" id="MainApp-to-DocumentEditor" style="stroke:#181818;stroke-width:1;"/><polygon fill="#181818" points="425.79,269.57,434.4631,264.9033,428.8514,265.6168,428.1379,260.0051,425.79,269.57" style="stroke:#181818;stroke-width:1;"/></g><!--link MainApp to FileManager--><g class="link" data-entity-1="ent0028" data-entity-2="ent0003" data-link-type="dependency" data-source-line="110" id="lnk30"><path codeLine="110" d="M627.91,202.09 C642.84,221.37 654.9178,236.955 670.0478,256.505" fill="none" id="MainApp-to-FileManager" style="stroke:#181818;stroke-width:1;"/><polygon fill="#181818" points="673.72,261.25,671.375,251.6844,670.6598,257.2958,665.0484,256.5807,673.72,261.25" style="stroke:#181818;stroke-width:1;"/></g><?plantuml-src ZLNDJjj04BxxAUP644JSAueK4PUYuWJXe0fL5ThQWrdYUAtTDS6XlVILU0JKz-giVv9TEmGuXDsTlszclXdlmUVjVzuU1DEnVm7ZqUJcz2jTtrACKgOKZ4LKB33JyEm132EHQNFv1A6MF4kyFzuE3tiGpgv6C__i1Yv7ivb_DQ6dBpp5W6KiGGanffWK3mWhbdDr9E9eLMg81IWjcSQ4ytVnsUuCH0898Nl4iFPGWh8khRp2VYb5ZbBN6e68iNrej2wPlgza9eIvLEy7y2Xu30gr7MNWXBorO-xlClEj6qS5xncsK0OLkBlcrchMUK6oqPsm1GvSHoGPh9iQDuV3JRQsmyeY5In-qy88-n3UB2rX8SPud5WaxrY4RgjC_mugW1I5E3PUnygh46HQD_r2A9MYKiQwUPg8WCbvB9PPzUWvZez_3uUkKL_STM0JQpWySP1w7cR50hhTUswAS34Dmmi_39lhP7eRZAw-ZQVV9oq1YpnFESfZs-a9q7GHyOj82-am5NA9MfUccMsPRVYHH3eCEYpGeZxK9Uz2xMMqJS6fs3Q5RirshOBJQH2C9cDh4xJjzMDE6SC3AWrpAWkHOm5pGQAOjCvZP6c64ASCpgxF3oanaVvYylLb2HpKd0xQdESfMtAr4iiokjy1P4EzKx5Oi2okMOTF61MwIpoBShConyQYtOoql7JdxPAfpPFNHgZuPJjm1AuVHtGgydAhm8spg-o17_YJsTGg-tKMYwChf2sRonMkG6KiL_V2JAjcMK4JFg-IBpxyRGZG_8hw4q5ED3eV25UvwNOzApNBxtZ6KkYjc9v6g5aqF-v4FO624gf47pMGs3KuwC1hXiaLcSNQdXs5Qass36hx5DN_Ute6RT_QG79UEujKuvEsbgZHeSfsQcf6idtQ9ci9iyEigT5kJj4Orh-mB5TBHeDPJsjv21cdZtd6GAsY5IQlB__-cjd4kAH0R8TJg4aIC9wDyjnXXo4KZzOYHMMXWH7PcmHgqegTQq_RtkztcxFLWYQYqvOE6FEfRV7qcqhAKW-8QGcQSuBxeE-bM2hmdoBCDRUIMBkkB1VaVr1JuCTFO39HjdCREY6mhbjvszJ3Ogz3Sk9HcuxDXAPijiWAz1y0?></g></svg>