<?xml version="1.0" encoding="us-ascii" standalone="no"?><svg xmlns="http://www.w3.org/2000/svg" xmlns:xlink="http://www.w3.org/1999/xlink" contentStyleType="text/css" height="738px" preserveAspectRatio="none" style="width:1099px;height:738px;background:#FFFFFF;" version="1.1" viewBox="0 0 1099 738" width="1099px" zoomAndPan="magnify"><defs/><g><!--class Document--><g id="elem_Document"><rect codeLine="5" fill="#F1F1F1" height="65.6094" id="Document" rx="2.5" ry="2.5" style="stroke:#181818;stroke-width:0.5;" width="122" x="7" y="557"/><ellipse cx="33.7" cy="573" fill="#ADD1B2" rx="11" ry="11" style="stroke:#181818;stroke-width:1.0;"/><path d="M36.4656,568.875 Q36.6219,568.6563 36.8094,568.5469 Q36.9969,568.4375 37.2156,568.4375 Q37.5906,568.4375 37.825,568.7031 Q38.0594,568.9531 38.0594,569.5625 L38.0594,571.0156 Q38.0594,571.625 37.825,571.8906 Q37.5906,572.1563 37.2156,572.1563 Q36.8719,572.1563 36.6688,571.9531 Q36.4656,571.7656 36.3563,571.25 Q36.3094,570.8906 36.1219,570.7031 Q35.7938,570.3281 35.1844,570.1094 Q34.575,569.8906 33.95,569.8906 Q33.1844,569.8906 32.5438,570.2188 Q31.9188,570.5469 31.4188,571.2969 Q30.9344,572.0469 30.9344,573.0781 L30.9344,574.1719 Q30.9344,575.4063 31.825,576.2344 Q32.7156,577.0469 34.3094,577.0469 Q35.2469,577.0469 35.9031,576.7969 Q36.2938,576.6406 36.7156,576.2031 Q36.9813,575.9375 37.1219,575.8594 Q37.2781,575.7813 37.4813,575.7813 Q37.8094,575.7813 38.0594,576.0469 Q38.325,576.2969 38.325,576.6406 Q38.325,576.9844 37.9813,577.3906 Q37.4813,577.9688 36.6844,578.2969 Q35.6063,578.75 34.3094,578.75 Q32.7938,578.75 31.5906,578.125 Q30.6063,577.625 29.9188,576.5625 Q29.2313,575.4844 29.2313,574.2031 L29.2313,573.0469 Q29.2313,571.7188 29.8406,570.5781 Q30.4656,569.4219 31.5594,568.8125 Q32.6531,568.1875 33.8875,568.1875 Q34.6219,568.1875 35.2625,568.3594 Q35.9188,568.5156 36.4656,568.875 Z " fill="#000000"/><text fill="#000000" font-family="sans-serif" font-size="14" lengthAdjust="spacing" textLength="64" x="50.3" y="578.7285">Document</text><line style="stroke:#181818;stroke-width:0.5;" x1="8" x2="128" y1="589" y2="589"/><rect fill="none" height="6" style="stroke:#C82930;stroke-width:1.0;" width="6" x="15" y="600.3047"/><text fill="#000000" font-family="sans-serif" font-size="14" lengthAdjust="spacing" textLength="96" x="27" y="607.5332">content : String</text><line style="stroke:#181818;stroke-width:0.5;" x1="8" x2="128" y1="614.6094" y2="614.6094"/></g><!--class FileManager--><g id="elem_FileManager"><rect codeLine="13" fill="#F1F1F1" height="224.0938" id="FileManager" rx="2.5" ry="2.5" style="stroke:#181818;stroke-width:0.5;" width="362" x="441" y="273"/><ellipse cx="578.25" cy="289" fill="#ADD1B2" rx="11" ry="11" style="stroke:#181818;stroke-width:1.0;"/><path d="M581.0156,284.875 Q581.1719,284.6563 581.3594,284.5469 Q581.5469,284.4375 581.7656,284.4375 Q582.1406,284.4375 582.375,284.7031 Q582.6094,284.9531 582.6094,285.5625 L582.6094,287.0156 Q582.6094,287.625 582.375,287.8906 Q582.1406,288.1563 581.7656,288.1563 Q581.4219,288.1563 581.2188,287.9531 Q581.0156,287.7656 580.9063,287.25 Q580.8594,286.8906 580.6719,286.7031 Q580.3438,286.3281 579.7344,286.1094 Q579.125,285.8906 578.5,285.8906 Q577.7344,285.8906 577.0938,286.2188 Q576.4688,286.5469 575.9688,287.2969 Q575.4844,288.0469 575.4844,289.0781 L575.4844,290.1719 Q575.4844,291.4063 576.375,292.2344 Q577.2656,293.0469 578.8594,293.0469 Q579.7969,293.0469 580.4531,292.7969 Q580.8438,292.6406 581.2656,292.2031 Q581.5313,291.9375 581.6719,291.8594 Q581.8281,291.7813 582.0313,291.7813 Q582.3594,291.7813 582.6094,292.0469 Q582.875,292.2969 582.875,292.6406 Q582.875,292.9844 582.5313,293.3906 Q582.0313,293.9688 581.2344,294.2969 Q580.1563,294.75 578.8594,294.75 Q577.3438,294.75 576.1406,294.125 Q575.1563,293.625 574.4688,292.5625 Q573.7813,291.4844 573.7813,290.2031 L573.7813,289.0469 Q573.7813,287.7188 574.3906,286.5781 Q575.0156,285.4219 576.1094,284.8125 Q577.2031,284.1875 578.4375,284.1875 Q579.1719,284.1875 579.8125,284.3594 Q580.4688,284.5156 581.0156,284.875 Z " fill="#000000"/><text fill="#000000" font-family="sans-serif" font-size="14" lengthAdjust="spacing" textLength="79" x="598.75" y="294.7285">FileManager</text><line style="stroke:#181818;stroke-width:0.5;" x1="442" x2="802" y1="305" y2="305"/><rect fill="none" height="6" style="stroke:#C82930;stroke-width:1.0;" width="6" x="449" y="316.3047"/><text fill="#000000" font-family="sans-serif" font-size="14" lengthAdjust="spacing" textLength="172" x="461" y="323.5332">SaveStrategy saveStrategy</text><rect fill="none" height="6" style="stroke:#C82930;stroke-width:1.0;" width="6" x="449" y="333.9141"/><text fill="#000000" font-family="sans-serif" font-size="14" lengthAdjust="spacing" textLength="214" x="461" y="341.1426">StringProperty saveModeProperty</text><rect fill="none" height="6" style="stroke:#C82930;stroke-width:1.0;" width="6" x="449" y="351.5234"/><text fill="#000000" font-family="sans-serif" font-size="14" lengthAdjust="spacing" textLength="115" x="461" y="358.752">Path saveFilePath</text><line style="stroke:#181818;stroke-width:0.5;" x1="442" x2="802" y1="365.8281" y2="365.8281"/><ellipse cx="452" cy="380.1328" fill="#84BE84" rx="3" ry="3" style="stroke:#038048;stroke-width:1.0;"/><text fill="#000000" font-family="sans-serif" font-size="14" lengthAdjust="spacing" textLength="324" x="461" y="384.3613">void setSaveStrategy(SaveStrategy _saveStrategy)</text><ellipse cx="452" cy="397.7422" fill="#84BE84" rx="3" ry="3" style="stroke:#038048;stroke-width:1.0;"/><text fill="#000000" font-family="sans-serif" font-size="14" lengthAdjust="spacing" textLength="336" x="461" y="401.9707">void setSaveStrategy(ESaveStrategies saveStrategy)</text><ellipse cx="452" cy="415.3516" fill="#84BE84" rx="3" ry="3" style="stroke:#038048;stroke-width:1.0;"/><text fill="#000000" font-family="sans-serif" font-size="14" lengthAdjust="spacing" textLength="223" x="461" y="419.5801">void setSaveFilePath(Path filePath)</text><ellipse cx="452" cy="432.9609" fill="#84BE84" rx="3" ry="3" style="stroke:#038048;stroke-width:1.0;"/><text fill="#000000" font-family="sans-serif" font-size="14" lengthAdjust="spacing" textLength="162" x="461" y="437.1895">String getSaveFileName()</text><ellipse cx="452" cy="450.5703" fill="#84BE84" rx="3" ry="3" style="stroke:#038048;stroke-width:1.0;"/><text fill="#000000" font-family="sans-serif" font-size="14" lengthAdjust="spacing" textLength="300" x="461" y="454.7988">void save(Document document, Path savePath)</text><ellipse cx="452" cy="468.1797" fill="#84BE84" rx="3" ry="3" style="stroke:#038048;stroke-width:1.0;"/><text fill="#000000" font-family="sans-serif" font-size="14" lengthAdjust="spacing" textLength="294" x="461" y="472.4082">void load(Document document, Path loadPath)</text><ellipse cx="452" cy="485.7891" fill="#84BE84" rx="3" ry="3" style="stroke:#038048;stroke-width:1.0;"/><text fill="#000000" font-family="sans-serif" font-size="14" lengthAdjust="spacing" textLength="224" x="461" y="490.0176">StringProperty saveModeProperty()</text></g><!--class SaveStrategy--><g id="elem_SaveStrategy"><rect codeLine="27" fill="#F1F1F1" height="65.6094" id="SaveStrategy" rx="2.5" ry="2.5" style="stroke:#181818;stroke-width:0.5;" width="201" x="675.5" y="557"/><ellipse cx="729.75" cy="573" fill="#B4A7E5" rx="11" ry="11" style="stroke:#181818;stroke-width:1.0;"/><path d="M730.7031,569.6406 L730.7031,576.2969 L732.4219,576.2969 Q733.0313,576.2969 733.2969,576.5313 Q733.5625,576.7656 733.5625,577.1563 Q733.5625,577.5313 733.2969,577.7656 Q733.0313,578 732.4219,578 L727.2813,578 Q726.6719,578 726.4063,577.7656 Q726.1406,577.5313 726.1406,577.1406 Q726.1406,576.7656 726.4063,576.5313 Q726.6719,576.2969 727.2813,576.2969 L729,576.2969 L729,569.6406 L727.2813,569.6406 Q726.6719,569.6406 726.4063,569.4063 Q726.1406,569.1719 726.1406,568.7813 Q726.1406,568.4063 726.4063,568.1719 Q726.6719,567.9375 727.2813,567.9375 L732.4219,567.9375 Q733.0313,567.9375 733.2969,568.1719 Q733.5625,568.4063 733.5625,568.7813 Q733.5625,569.1719 733.2969,569.4063 Q733.0313,569.6406 732.4219,569.6406 L730.7031,569.6406 Z " fill="#000000"/><text fill="#000000" font-family="sans-serif" font-size="14" font-style="italic" lengthAdjust="spacing" textLength="84" x="750.25" y="578.7285">SaveStrategy</text><line style="stroke:#181818;stroke-width:0.5;" x1="676.5" x2="875.5" y1="589" y2="589"/><line style="stroke:#181818;stroke-width:0.5;" x1="676.5" x2="875.5" y1="597" y2="597"/><ellipse cx="686.5" cy="611.3047" fill="#84BE84" rx="3" ry="3" style="stroke:#038048;stroke-width:1.0;"/><text fill="#000000" font-family="sans-serif" font-size="14" lengthAdjust="spacing" textLength="175" x="695.5" y="615.5332">save(doc : Document, path)</text></g><!--class LosslessSave--><g id="elem_LosslessSave"><rect codeLine="31" fill="#F1F1F1" height="48" id="LosslessSave" rx="2.5" ry="2.5" style="stroke:#181818;stroke-width:0.5;" width="119" x="730.5" y="683"/><ellipse cx="745.5" cy="699" fill="#ADD1B2" rx="11" ry="11" style="stroke:#181818;stroke-width:1.0;"/><path d="M748.2656,694.875 Q748.4219,694.6563 748.6094,694.5469 Q748.7969,694.4375 749.0156,694.4375 Q749.3906,694.4375 749.625,694.7031 Q749.8594,694.9531 749.8594,695.5625 L749.8594,697.0156 Q749.8594,697.625 749.625,697.8906 Q749.3906,698.1563 749.0156,698.1563 Q748.6719,698.1563 748.4688,697.9531 Q748.2656,697.7656 748.1563,697.25 Q748.1094,696.8906 747.9219,696.7031 Q747.5938,696.3281 746.9844,696.1094 Q746.375,695.8906 745.75,695.8906 Q744.9844,695.8906 744.3438,696.2188 Q743.7188,696.5469 743.2188,697.2969 Q742.7344,698.0469 742.7344,699.0781 L742.7344,700.1719 Q742.7344,701.4063 743.625,702.2344 Q744.5156,703.0469 746.1094,703.0469 Q747.0469,703.0469 747.7031,702.7969 Q748.0938,702.6406 748.5156,702.2031 Q748.7813,701.9375 748.9219,701.8594 Q749.0781,701.7813 749.2813,701.7813 Q749.6094,701.7813 749.8594,702.0469 Q750.125,702.2969 750.125,702.6406 Q750.125,702.9844 749.7813,703.3906 Q749.2813,703.9688 748.4844,704.2969 Q747.4063,704.75 746.1094,704.75 Q744.5938,704.75 743.3906,704.125 Q742.4063,703.625 741.7188,702.5625 Q741.0313,701.4844 741.0313,700.2031 L741.0313,699.0469 Q741.0313,697.7188 741.6406,696.5781 Q742.2656,695.4219 743.3594,694.8125 Q744.4531,694.1875 745.6875,694.1875 Q746.4219,694.1875 747.0625,694.3594 Q747.7188,694.5156 748.2656,694.875 Z " fill="#000000"/><text fill="#000000" font-family="sans-serif" font-size="14" lengthAdjust="spacing" textLength="87" x="759.5" y="704.7285">LosslessSave</text><line style="stroke:#181818;stroke-width:0.5;" x1="731.5" x2="848.5" y1="715" y2="715"/><line style="stroke:#181818;stroke-width:0.5;" x1="731.5" x2="848.5" y1="723" y2="723"/></g><!--class NoMarkdownSave--><g id="elem_NoMarkdownSave"><rect codeLine="32" fill="#F1F1F1" height="48" id="NoMarkdownSave" rx="2.5" ry="2.5" style="stroke:#181818;stroke-width:0.5;" width="145" x="913.5" y="683"/><ellipse cx="928.5" cy="699" fill="#ADD1B2" rx="11" ry="11" style="stroke:#181818;stroke-width:1.0;"/><path d="M931.2656,694.875 Q931.4219,694.6563 931.6094,694.5469 Q931.7969,694.4375 932.0156,694.4375 Q932.3906,694.4375 932.625,694.7031 Q932.8594,694.9531 932.8594,695.5625 L932.8594,697.0156 Q932.8594,697.625 932.625,697.8906 Q932.3906,698.1563 932.0156,698.1563 Q931.6719,698.1563 931.4688,697.9531 Q931.2656,697.7656 931.1563,697.25 Q931.1094,696.8906 930.9219,696.7031 Q930.5938,696.3281 929.9844,696.1094 Q929.375,695.8906 928.75,695.8906 Q927.9844,695.8906 927.3438,696.2188 Q926.7188,696.5469 926.2188,697.2969 Q925.7344,698.0469 925.7344,699.0781 L925.7344,700.1719 Q925.7344,701.4063 926.625,702.2344 Q927.5156,703.0469 929.1094,703.0469 Q930.0469,703.0469 930.7031,702.7969 Q931.0938,702.6406 931.5156,702.2031 Q931.7813,701.9375 931.9219,701.8594 Q932.0781,701.7813 932.2813,701.7813 Q932.6094,701.7813 932.8594,702.0469 Q933.125,702.2969 933.125,702.6406 Q933.125,702.9844 932.7813,703.3906 Q932.2813,703.9688 931.4844,704.2969 Q930.4063,704.75 929.1094,704.75 Q927.5938,704.75 926.3906,704.125 Q925.4063,703.625 924.7188,702.5625 Q924.0313,701.4844 924.0313,700.2031 L924.0313,699.0469 Q924.0313,697.7188 924.6406,696.5781 Q925.2656,695.4219 926.3594,694.8125 Q927.4531,694.1875 928.6875,694.1875 Q929.4219,694.1875 930.0625,694.3594 Q930.7188,694.5156 931.2656,694.875 Z " fill="#000000"/><text fill="#000000" font-family="sans-serif" font-size="14" lengthAdjust="spacing" textLength="113" x="942.5" y="704.7285">NoMarkdownSave</text><line style="stroke:#181818;stroke-width:0.5;" x1="914.5" x2="1057.5" y1="715" y2="715"/><line style="stroke:#181818;stroke-width:0.5;" x1="914.5" x2="1057.5" y1="723" y2="723"/></g><!--class ESaveStrategies--><g id="elem_ESaveStrategies"><rect codeLine="39" fill="#F1F1F1" height="153.6563" id="ESaveStrategies" rx="2.5" ry="2.5" style="stroke:#181818;stroke-width:0.5;" width="254" x="838" y="308"/><ellipse cx="908.25" cy="324" fill="#EB937F" rx="11" ry="11" style="stroke:#181818;stroke-width:1.0;"/><path d="M907.1094,324.7969 L907.1094,327.2969 L911.4375,327.2969 L911.4375,326.375 Q911.4375,325.7656 911.6719,325.5 Q911.9219,325.2344 912.2969,325.2344 Q912.6719,325.2344 912.9063,325.5 Q913.1406,325.7656 913.1406,326.375 L913.1406,329 L905.1406,329 Q904.5156,329 904.25,328.7656 Q904,328.5313 904,328.1406 Q904,327.7656 904.2656,327.5313 Q904.5313,327.2969 905.1406,327.2969 L905.4063,327.2969 L905.4063,320.6406 L905.1406,320.6406 Q904.5156,320.6406 904.25,320.4063 Q904,320.1719 904,319.7813 Q904,319.4063 904.25,319.1719 Q904.5156,318.9375 905.1406,318.9375 L912.7656,318.9375 L912.7656,321.5313 Q912.7656,322.1406 912.5313,322.4063 Q912.3125,322.6563 911.9219,322.6563 Q911.5469,322.6563 911.3125,322.4063 Q911.0781,322.1406 911.0781,321.5313 L911.0781,320.6406 L907.1094,320.6406 L907.1094,323.0938 L908.5938,323.0938 Q908.5938,322.4375 908.7188,322.25 Q908.9844,321.8438 909.4531,321.8438 Q909.8281,321.8438 910.0625,322.1094 Q910.2969,322.3594 910.2969,322.9688 L910.2969,324.9375 Q910.2969,325.4844 910.1719,325.6719 Q909.9063,326.0625 909.4531,326.0625 Q908.9844,326.0625 908.7188,325.6563 Q908.5938,325.4688 908.5938,324.7969 L907.1094,324.7969 Z " fill="#000000"/><text fill="#000000" font-family="sans-serif" font-size="14" lengthAdjust="spacing" textLength="105" x="928.75" y="329.7285">ESaveStrategies</text><line style="stroke:#181818;stroke-width:0.5;" x1="839" x2="1091" y1="340" y2="340"/><ellipse cx="849" cy="354.3047" fill="none" rx="3" ry="3" style="stroke:#038048;stroke-width:1.0;"/><text fill="#000000" font-family="sans-serif" font-size="14" lengthAdjust="spacing" textLength="72" x="858" y="358.5332">LOSSLESS</text><ellipse cx="849" cy="371.9141" fill="none" rx="3" ry="3" style="stroke:#038048;stroke-width:1.0;"/><text fill="#000000" font-family="sans-serif" font-size="14" lengthAdjust="spacing" textLength="110" x="858" y="376.1426">NO_MARKDOWN</text><rect fill="none" height="6" style="stroke:#C82930;stroke-width:1.0;" width="6" x="846" y="386.5234"/><text fill="#000000" font-family="sans-serif" font-size="14" lengthAdjust="spacing" textLength="228" x="858" y="393.752">Supplier&lt;SaveStrategy&gt; constructor</text><rect fill="none" height="6" style="stroke:#C82930;stroke-width:1.0;" width="6" x="846" y="404.1328"/><text fill="#000000" font-family="sans-serif" font-size="14" lengthAdjust="spacing" textLength="113" x="858" y="411.3613">String prettyName</text><line style="stroke:#181818;stroke-width:0.5;" x1="839" x2="1091" y1="418.4375" y2="418.4375"/><ellipse cx="849" cy="432.7422" fill="#84BE84" rx="3" ry="3" style="stroke:#038048;stroke-width:1.0;"/><text fill="#000000" font-family="sans-serif" font-size="14" lengthAdjust="spacing" textLength="139" x="858" y="436.9707">SaveStrategy create()</text><ellipse cx="849" cy="450.3516" fill="#84BE84" rx="3" ry="3" style="stroke:#038048;stroke-width:1.0;"/><text fill="#000000" font-family="sans-serif" font-size="14" lengthAdjust="spacing" textLength="100" x="858" y="454.5801">String toString()</text></g><!--class Command--><g id="elem_Command"><rect codeLine="57" fill="#F1F1F1" height="65.6094" id="Command" rx="2.5" ry="2.5" style="stroke:#181818;stroke-width:0.5;" width="184" x="164" y="557"/><ellipse cx="219.75" cy="573" fill="#B4A7E5" rx="11" ry="11" style="stroke:#181818;stroke-width:1.0;"/><path d="M220.7031,569.6406 L220.7031,576.2969 L222.4219,576.2969 Q223.0313,576.2969 223.2969,576.5313 Q223.5625,576.7656 223.5625,577.1563 Q223.5625,577.5313 223.2969,577.7656 Q223.0313,578 222.4219,578 L217.2813,578 Q216.6719,578 216.4063,577.7656 Q216.1406,577.5313 216.1406,577.1406 Q216.1406,576.7656 216.4063,576.5313 Q216.6719,576.2969 217.2813,576.2969 L219,576.2969 L219,569.6406 L217.2813,569.6406 Q216.6719,569.6406 216.4063,569.4063 Q216.1406,569.1719 216.1406,568.7813 Q216.1406,568.4063 216.4063,568.1719 Q216.6719,567.9375 217.2813,567.9375 L222.4219,567.9375 Q223.0313,567.9375 223.2969,568.1719 Q223.5625,568.4063 223.5625,568.7813 Q223.5625,569.1719 223.2969,569.4063 Q223.0313,569.6406 222.4219,569.6406 L220.7031,569.6406 Z " fill="#000000"/><text fill="#000000" font-family="sans-serif" font-size="14" font-style="italic" lengthAdjust="spacing" textLength="64" x="240.25" y="578.7285">Command</text><line style="stroke:#181818;stroke-width:0.5;" x1="165" x2="347" y1="589" y2="589"/><line style="stroke:#181818;stroke-width:0.5;" x1="165" x2="347" y1="597" y2="597"/><ellipse cx="175" cy="611.3047" fill="#84BE84" rx="3" ry="3" style="stroke:#038048;stroke-width:1.0;"/><text fill="#000000" font-family="sans-serif" font-size="14" lengthAdjust="spacing" textLength="158" x="184" y="615.5332">execute(doc : Document)</text></g><!--class PasteCommand--><g id="elem_PasteCommand"><rect codeLine="61" fill="#F1F1F1" height="48" id="PasteCommand" rx="2.5" ry="2.5" style="stroke:#181818;stroke-width:0.5;" width="132" x="107" y="683"/><ellipse cx="122" cy="699" fill="#ADD1B2" rx="11" ry="11" style="stroke:#181818;stroke-width:1.0;"/><path d="M124.7656,694.875 Q124.9219,694.6563 125.1094,694.5469 Q125.2969,694.4375 125.5156,694.4375 Q125.8906,694.4375 126.125,694.7031 Q126.3594,694.9531 126.3594,695.5625 L126.3594,697.0156 Q126.3594,697.625 126.125,697.8906 Q125.8906,698.1563 125.5156,698.1563 Q125.1719,698.1563 124.9688,697.9531 Q124.7656,697.7656 124.6563,697.25 Q124.6094,696.8906 124.4219,696.7031 Q124.0938,696.3281 123.4844,696.1094 Q122.875,695.8906 122.25,695.8906 Q121.4844,695.8906 120.8438,696.2188 Q120.2188,696.5469 119.7188,697.2969 Q119.2344,698.0469 119.2344,699.0781 L119.2344,700.1719 Q119.2344,701.4063 120.125,702.2344 Q121.0156,703.0469 122.6094,703.0469 Q123.5469,703.0469 124.2031,702.7969 Q124.5938,702.6406 125.0156,702.2031 Q125.2813,701.9375 125.4219,701.8594 Q125.5781,701.7813 125.7813,701.7813 Q126.1094,701.7813 126.3594,702.0469 Q126.625,702.2969 126.625,702.6406 Q126.625,702.9844 126.2813,703.3906 Q125.7813,703.9688 124.9844,704.2969 Q123.9063,704.75 122.6094,704.75 Q121.0938,704.75 119.8906,704.125 Q118.9063,703.625 118.2188,702.5625 Q117.5313,701.4844 117.5313,700.2031 L117.5313,699.0469 Q117.5313,697.7188 118.1406,696.5781 Q118.7656,695.4219 119.8594,694.8125 Q120.9531,694.1875 122.1875,694.1875 Q122.9219,694.1875 123.5625,694.3594 Q124.2188,694.5156 124.7656,694.875 Z " fill="#000000"/><text fill="#000000" font-family="sans-serif" font-size="14" lengthAdjust="spacing" textLength="100" x="136" y="704.7285">PasteCommand</text><line style="stroke:#181818;stroke-width:0.5;" x1="108" x2="238" y1="715" y2="715"/><line style="stroke:#181818;stroke-width:0.5;" x1="108" x2="238" y1="723" y2="723"/></g><!--class CopyCommand--><g id="elem_CopyCommand"><rect fill="#F1F1F1" height="48" id="CopyCommand" rx="2.5" ry="2.5" style="stroke:#181818;stroke-width:0.5;" width="129" x="274.5" y="683"/><ellipse cx="289.5" cy="699" fill="#ADD1B2" rx="11" ry="11" style="stroke:#181818;stroke-width:1.0;"/><path d="M292.2656,694.875 Q292.4219,694.6563 292.6094,694.5469 Q292.7969,694.4375 293.0156,694.4375 Q293.3906,694.4375 293.625,694.7031 Q293.8594,694.9531 293.8594,695.5625 L293.8594,697.0156 Q293.8594,697.625 293.625,697.8906 Q293.3906,698.1563 293.0156,698.1563 Q292.6719,698.1563 292.4688,697.9531 Q292.2656,697.7656 292.1563,697.25 Q292.1094,696.8906 291.9219,696.7031 Q291.5938,696.3281 290.9844,696.1094 Q290.375,695.8906 289.75,695.8906 Q288.9844,695.8906 288.3438,696.2188 Q287.7188,696.5469 287.2188,697.2969 Q286.7344,698.0469 286.7344,699.0781 L286.7344,700.1719 Q286.7344,701.4063 287.625,702.2344 Q288.5156,703.0469 290.1094,703.0469 Q291.0469,703.0469 291.7031,702.7969 Q292.0938,702.6406 292.5156,702.2031 Q292.7813,701.9375 292.9219,701.8594 Q293.0781,701.7813 293.2813,701.7813 Q293.6094,701.7813 293.8594,702.0469 Q294.125,702.2969 294.125,702.6406 Q294.125,702.9844 293.7813,703.3906 Q293.2813,703.9688 292.4844,704.2969 Q291.4063,704.75 290.1094,704.75 Q288.5938,704.75 287.3906,704.125 Q286.4063,703.625 285.7188,702.5625 Q285.0313,701.4844 285.0313,700.2031 L285.0313,699.0469 Q285.0313,697.7188 285.6406,696.5781 Q286.2656,695.4219 287.3594,694.8125 Q288.4531,694.1875 289.6875,694.1875 Q290.4219,694.1875 291.0625,694.3594 Q291.7188,694.5156 292.2656,694.875 Z " fill="#000000"/><text fill="#000000" font-family="sans-serif" font-size="14" lengthAdjust="spacing" textLength="97" x="303.5" y="704.7285">CopyCommand</text><line style="stroke:#181818;stroke-width:0.5;" x1="275.5" x2="402.5" y1="715" y2="715"/><line style="stroke:#181818;stroke-width:0.5;" x1="275.5" x2="402.5" y1="723" y2="723"/></g><!--class DocumentMemento--><g id="elem_DocumentMemento"><rect codeLine="70" fill="#F1F1F1" height="65.6094" id="DocumentMemento" rx="2.5" ry="2.5" style="stroke:#181818;stroke-width:0.5;" width="154" x="383" y="557"/><ellipse cx="398" cy="573" fill="#ADD1B2" rx="11" ry="11" style="stroke:#181818;stroke-width:1.0;"/><path d="M400.7656,568.875 Q400.9219,568.6563 401.1094,568.5469 Q401.2969,568.4375 401.5156,568.4375 Q401.8906,568.4375 402.125,568.7031 Q402.3594,568.9531 402.3594,569.5625 L402.3594,571.0156 Q402.3594,571.625 402.125,571.8906 Q401.8906,572.1563 401.5156,572.1563 Q401.1719,572.1563 400.9688,571.9531 Q400.7656,571.7656 400.6563,571.25 Q400.6094,570.8906 400.4219,570.7031 Q400.0938,570.3281 399.4844,570.1094 Q398.875,569.8906 398.25,569.8906 Q397.4844,569.8906 396.8438,570.2188 Q396.2188,570.5469 395.7188,571.2969 Q395.2344,572.0469 395.2344,573.0781 L395.2344,574.1719 Q395.2344,575.4063 396.125,576.2344 Q397.0156,577.0469 398.6094,577.0469 Q399.5469,577.0469 400.2031,576.7969 Q400.5938,576.6406 401.0156,576.2031 Q401.2813,575.9375 401.4219,575.8594 Q401.5781,575.7813 401.7813,575.7813 Q402.1094,575.7813 402.3594,576.0469 Q402.625,576.2969 402.625,576.6406 Q402.625,576.9844 402.2813,577.3906 Q401.7813,577.9688 400.9844,578.2969 Q399.9063,578.75 398.6094,578.75 Q397.0938,578.75 395.8906,578.125 Q394.9063,577.625 394.2188,576.5625 Q393.5313,575.4844 393.5313,574.2031 L393.5313,573.0469 Q393.5313,571.7188 394.1406,570.5781 Q394.7656,569.4219 395.8594,568.8125 Q396.9531,568.1875 398.1875,568.1875 Q398.9219,568.1875 399.5625,568.3594 Q400.2188,568.5156 400.7656,568.875 Z " fill="#000000"/><text fill="#000000" font-family="sans-serif" font-size="14" lengthAdjust="spacing" textLength="122" x="412" y="578.7285">DocumentMemento</text><line style="stroke:#181818;stroke-width:0.5;" x1="384" x2="536" y1="589" y2="589"/><rect fill="none" height="6" style="stroke:#C82930;stroke-width:1.0;" width="6" x="391" y="600.3047"/><text fill="#000000" font-family="sans-serif" font-size="14" lengthAdjust="spacing" textLength="80" x="403" y="607.5332">state : String</text><line style="stroke:#181818;stroke-width:0.5;" x1="384" x2="536" y1="614.6094" y2="614.6094"/></g><!--class DocumentEditor--><g id="elem_DocumentEditor"><rect codeLine="74" fill="#F1F1F1" height="206.4844" id="DocumentEditor" rx="2.5" ry="2.5" style="stroke:#181818;stroke-width:0.5;" width="300" x="106" y="282"/><ellipse cx="201.25" cy="298" fill="#ADD1B2" rx="11" ry="11" style="stroke:#181818;stroke-width:1.0;"/><path d="M204.0156,293.875 Q204.1719,293.6563 204.3594,293.5469 Q204.5469,293.4375 204.7656,293.4375 Q205.1406,293.4375 205.375,293.7031 Q205.6094,293.9531 205.6094,294.5625 L205.6094,296.0156 Q205.6094,296.625 205.375,296.8906 Q205.1406,297.1563 204.7656,297.1563 Q204.4219,297.1563 204.2188,296.9531 Q204.0156,296.7656 203.9063,296.25 Q203.8594,295.8906 203.6719,295.7031 Q203.3438,295.3281 202.7344,295.1094 Q202.125,294.8906 201.5,294.8906 Q200.7344,294.8906 200.0938,295.2188 Q199.4688,295.5469 198.9688,296.2969 Q198.4844,297.0469 198.4844,298.0781 L198.4844,299.1719 Q198.4844,300.4063 199.375,301.2344 Q200.2656,302.0469 201.8594,302.0469 Q202.7969,302.0469 203.4531,301.7969 Q203.8438,301.6406 204.2656,301.2031 Q204.5313,300.9375 204.6719,300.8594 Q204.8281,300.7813 205.0313,300.7813 Q205.3594,300.7813 205.6094,301.0469 Q205.875,301.2969 205.875,301.6406 Q205.875,301.9844 205.5313,302.3906 Q205.0313,302.9688 204.2344,303.2969 Q203.1563,303.75 201.8594,303.75 Q200.3438,303.75 199.1406,303.125 Q198.1563,302.625 197.4688,301.5625 Q196.7813,300.4844 196.7813,299.2031 L196.7813,298.0469 Q196.7813,296.7188 197.3906,295.5781 Q198.0156,294.4219 199.1094,293.8125 Q200.2031,293.1875 201.4375,293.1875 Q202.1719,293.1875 202.8125,293.3594 Q203.4688,293.5156 204.0156,293.875 Z " fill="#000000"/><text fill="#000000" font-family="sans-serif" font-size="14" lengthAdjust="spacing" textLength="101" x="221.75" y="303.7285">DocumentEditor</text><line style="stroke:#181818;stroke-width:0.5;" x1="107" x2="405" y1="314" y2="314"/><rect fill="none" height="6" style="stroke:#C82930;stroke-width:1.0;" width="6" x="114" y="325.3047"/><text fill="#000000" font-family="sans-serif" font-size="14" lengthAdjust="spacing" textLength="160" x="126" y="332.5332">final Document document</text><rect fill="none" height="6" style="stroke:#C82930;stroke-width:1.0;" width="6" x="114" y="342.9141"/><text fill="#000000" font-family="sans-serif" font-size="14" lengthAdjust="spacing" textLength="274" x="126" y="350.1426">final Stack&lt;DocumentMemento&gt; undoStack</text><rect fill="none" height="6" style="stroke:#C82930;stroke-width:1.0;" width="6" x="114" y="360.5234"/><text fill="#000000" font-family="sans-serif" font-size="14" lengthAdjust="spacing" textLength="271" x="126" y="367.752">final Stack&lt;DocumentMemento&gt; redoStack</text><line style="stroke:#181818;stroke-width:0.5;" x1="107" x2="405" y1="374.8281" y2="374.8281"/><ellipse cx="117" cy="389.1328" fill="#84BE84" rx="3" ry="3" style="stroke:#038048;stroke-width:1.0;"/><text fill="#000000" font-family="sans-serif" font-size="14" lengthAdjust="spacing" textLength="111" x="126" y="393.3613">DocumentEditor()</text><ellipse cx="117" cy="406.7422" fill="#84BE84" rx="3" ry="3" style="stroke:#038048;stroke-width:1.0;"/><text fill="#000000" font-family="sans-serif" font-size="14" lengthAdjust="spacing" textLength="162" x="126" y="410.9707">Document getDocument()</text><ellipse cx="117" cy="424.3516" fill="#84BE84" rx="3" ry="3" style="stroke:#038048;stroke-width:1.0;"/><text fill="#000000" font-family="sans-serif" font-size="14" lengthAdjust="spacing" textLength="218" x="126" y="428.5801">void execute(Command command)</text><ellipse cx="117" cy="441.9609" fill="#84BE84" rx="3" ry="3" style="stroke:#038048;stroke-width:1.0;"/><text fill="#000000" font-family="sans-serif" font-size="14" lengthAdjust="spacing" textLength="72" x="126" y="446.1895">void undo()</text><ellipse cx="117" cy="459.5703" fill="#84BE84" rx="3" ry="3" style="stroke:#038048;stroke-width:1.0;"/><text fill="#000000" font-family="sans-serif" font-size="14" lengthAdjust="spacing" textLength="69" x="126" y="463.7988">void redo()</text><ellipse cx="117" cy="477.1797" fill="#84BE84" rx="3" ry="3" style="stroke:#038048;stroke-width:1.0;"/><text fill="#000000" font-family="sans-serif" font-size="14" lengthAdjust="spacing" textLength="181" x="126" y="481.4082">StringProperty textProperty()</text></g><!--class MainApp--><g id="elem_MainApp"><rect codeLine="94" fill="#F1F1F1" height="206.4844" id="MainApp" rx="2.5" ry="2.5" style="stroke:#181818;stroke-width:0.5;" width="280" x="482" y="7"/><ellipse cx="590.25" cy="23" fill="#ADD1B2" rx="11" ry="11" style="stroke:#181818;stroke-width:1.0;"/><path d="M593.0156,18.875 Q593.1719,18.6563 593.3594,18.5469 Q593.5469,18.4375 593.7656,18.4375 Q594.1406,18.4375 594.375,18.7031 Q594.6094,18.9531 594.6094,19.5625 L594.6094,21.0156 Q594.6094,21.625 594.375,21.8906 Q594.1406,22.1563 593.7656,22.1563 Q593.4219,22.1563 593.2188,21.9531 Q593.0156,21.7656 592.9063,21.25 Q592.8594,20.8906 592.6719,20.7031 Q592.3438,20.3281 591.7344,20.1094 Q591.125,19.8906 590.5,19.8906 Q589.7344,19.8906 589.0938,20.2188 Q588.4688,20.5469 587.9688,21.2969 Q587.4844,22.0469 587.4844,23.0781 L587.4844,24.1719 Q587.4844,25.4063 588.375,26.2344 Q589.2656,27.0469 590.8594,27.0469 Q591.7969,27.0469 592.4531,26.7969 Q592.8438,26.6406 593.2656,26.2031 Q593.5313,25.9375 593.6719,25.8594 Q593.8281,25.7813 594.0313,25.7813 Q594.3594,25.7813 594.6094,26.0469 Q594.875,26.2969 594.875,26.6406 Q594.875,26.9844 594.5313,27.3906 Q594.0313,27.9688 593.2344,28.2969 Q592.1563,28.75 590.8594,28.75 Q589.3438,28.75 588.1406,28.125 Q587.1563,27.625 586.4688,26.5625 Q585.7813,25.4844 585.7813,24.2031 L585.7813,23.0469 Q585.7813,21.7188 586.3906,20.5781 Q587.0156,19.4219 588.1094,18.8125 Q589.2031,18.1875 590.4375,18.1875 Q591.1719,18.1875 591.8125,18.3594 Q592.4688,18.5156 593.0156,18.875 Z " fill="#000000"/><text fill="#000000" font-family="sans-serif" font-size="14" lengthAdjust="spacing" textLength="55" x="610.75" y="28.7285">MainApp</text><line style="stroke:#181818;stroke-width:0.5;" x1="483" x2="761" y1="39" y2="39"/><rect fill="none" height="6" style="stroke:#C82930;stroke-width:1.0;" width="6" x="490" y="50.3047"/><text fill="#000000" font-family="sans-serif" font-size="14" lengthAdjust="spacing" textLength="153" x="502" y="57.5332">static MainApp singleton</text><rect fill="none" height="6" style="stroke:#C82930;stroke-width:1.0;" width="6" x="490" y="67.9141"/><text fill="#000000" font-family="sans-serif" font-size="14" lengthAdjust="spacing" textLength="234" x="502" y="75.1426">final DocumentEditor documentEditor</text><rect fill="none" height="6" style="stroke:#C82930;stroke-width:1.0;" width="6" x="490" y="85.5234"/><text fill="#000000" font-family="sans-serif" font-size="14" lengthAdjust="spacing" textLength="187" x="502" y="92.752">final FileManager fileManager</text><line style="stroke:#181818;stroke-width:0.5;" x1="483" x2="761" y1="99.8281" y2="99.8281"/><ellipse cx="493" cy="114.1328" fill="#84BE84" rx="3" ry="3" style="stroke:#038048;stroke-width:1.0;"/><text fill="#000000" font-family="sans-serif" font-size="14" lengthAdjust="spacing" textLength="65" x="502" y="118.3613">MainApp()</text><ellipse cx="493" cy="131.7422" fill="#84BE84" rx="3" ry="3" style="stroke:#038048;stroke-width:1.0;"/><text fill="#000000" font-family="sans-serif" font-size="14" lengthAdjust="spacing" textLength="185" x="502" y="135.9707">static MainApp getSingleton()</text><ellipse cx="493" cy="149.3516" fill="#84BE84" rx="3" ry="3" style="stroke:#038048;stroke-width:1.0;"/><text fill="#000000" font-family="sans-serif" font-size="14" lengthAdjust="spacing" textLength="254" x="502" y="153.5801">void start(Stage stage) throws Exception</text><ellipse cx="493" cy="166.9609" fill="#84BE84" rx="3" ry="3" style="stroke:#038048;stroke-width:1.0;"/><text fill="#000000" font-family="sans-serif" font-size="14" lengthAdjust="spacing" textLength="184" x="502" y="171.1895">static void main(String[] args)</text><ellipse cx="493" cy="184.5703" fill="#84BE84" rx="3" ry="3" style="stroke:#038048;stroke-width:1.0;"/><text fill="#000000" font-family="sans-serif" font-size="14" lengthAdjust="spacing" textLength="192" x="502" y="188.7988">FileManager getFileManager()</text><ellipse cx="493" cy="202.1797" fill="#84BE84" rx="3" ry="3" style="stroke:#038048;stroke-width:1.0;"/><text fill="#000000" font-family="sans-serif" font-size="14" lengthAdjust="spacing" textLength="236" x="502" y="206.4082">DocumentEditor getDocumentEditor()</text></g><!--reverse link SaveStrategy to LosslessSave--><g id="link_SaveStrategy_LosslessSave"><path codeLine="34" d="M782.0713,640.8986 C784.3813,659.9086 785.09,665.7 787.19,682.89 " fill="none" id="SaveStrategy-backto-LosslessSave" style="stroke:#181818;stroke-width:1.0;"/><polygon fill="none" points="779.9,623.03,776.1151,641.6223,788.0275,640.1748,779.9,623.03" style="stroke:#181818;stroke-width:1.0;"/></g><!--reverse link SaveStrategy to NoMarkdownSave--><g id="link_SaveStrategy_NoMarkdownSave"><path codeLine="35" d="M850.2873,631.6764 C884.9973,650.6864 912.41,665.7 943.79,682.89 " fill="none" id="SaveStrategy-backto-NoMarkdownSave" style="stroke:#181818;stroke-width:1.0;"/><polygon fill="none" points="834.5,623.03,847.4052,636.9389,853.1695,626.414,834.5,623.03" style="stroke:#181818;stroke-width:1.0;"/></g><!--link FileManager to SaveStrategy--><g id="link_FileManager_SaveStrategy"><path codeLine="37" d="M706.21,497 C722.78,518.85 735.2737,535.3198 747.8437,551.8898 " fill="none" id="FileManager-to-SaveStrategy" style="stroke:#181818;stroke-width:1.0;"/><polygon fill="#181818" points="751.47,556.67,749.2174,547.0822,748.4481,552.6865,742.8438,551.9172,751.47,556.67" style="stroke:#181818;stroke-width:1.0;"/></g><!--link ESaveStrategies to SaveStrategy--><g id="link_ESaveStrategies_SaveStrategy"><path codeLine="48" d="M894.09,462.17 C863.6,494.91 833.7187,527.0088 810.0587,552.4188 " fill="none" id="ESaveStrategies-to-SaveStrategy" style="stroke:#181818;stroke-width:1.0;"/><polygon fill="#181818" points="805.97,556.81,815.0305,552.9491,809.3773,553.1507,809.1757,547.4974,805.97,556.81" style="stroke:#181818;stroke-width:1.0;"/></g><!--link ESaveStrategies to LosslessSave--><g id="link_ESaveStrategies_LosslessSave"><path codeLine="49" d="M954.27,462.04 C944.56,511.2 926.58,574.77 894,623 C877.45,647.5 856.4363,664.9129 834.5763,679.5429 " fill="none" id="ESaveStrategies-to-LosslessSave" style="stroke:#181818;stroke-width:1.0;"/><polygon fill="#181818" points="829.59,682.88,839.2943,681.1985,833.7453,680.099,834.8447,674.5501,829.59,682.88" style="stroke:#181818;stroke-width:1.0;"/></g><!--link ESaveStrategies to NoMarkdownSave--><g id="link_ESaveStrategies_NoMarkdownSave"><path codeLine="50" d="M970,462.24 C974.71,533.97 981.0768,630.9829 984.0768,676.6629 " fill="none" id="ESaveStrategies-to-NoMarkdownSave" style="stroke:#181818;stroke-width:1.0;"/><polygon fill="#181818" points="984.47,682.65,987.8716,673.4072,984.1423,677.6607,979.8888,673.9315,984.47,682.65" style="stroke:#181818;stroke-width:1.0;"/></g><!--reverse link Command to CopyCommand--><g id="link_Command_CopyCommand"><path codeLine="63" d="M289.6541,637.6257 C303.3741,656.6357 309.92,665.7 322.32,682.89 " fill="none" id="Command-backto-CopyCommand" style="stroke:#181818;stroke-width:1.0;"/><polygon fill="none" points="279.12,623.03,284.7888,641.137,294.5193,634.1143,279.12,623.03" style="stroke:#181818;stroke-width:1.0;"/></g><!--reverse link Command to PasteCommand--><g id="link_Command_PasteCommand"><path codeLine="64" d="M222.3459,637.6257 C208.6259,656.6357 202.08,665.7 189.68,682.89 " fill="none" id="Command-backto-PasteCommand" style="stroke:#181818;stroke-width:1.0;"/><polygon fill="none" points="232.88,623.03,217.4807,634.1143,227.2112,641.137,232.88,623.03" style="stroke:#181818;stroke-width:1.0;"/></g><!--link DocumentEditor to Document--><g id="link_DocumentEditor_Document"><path codeLine="86" d="M161.45,488.09 C138.41,512.98 119.488,533.4089 102.068,552.2089 " fill="none" id="DocumentEditor-to-Document" style="stroke:#181818;stroke-width:1.0;"/><polygon fill="#181818" points="97.99,556.61,107.0411,552.727,101.3884,552.9424,101.173,547.2897,97.99,556.61" style="stroke:#181818;stroke-width:1.0;"/></g><!--link DocumentEditor to Command--><g id="link_DocumentEditor_Command"><path codeLine="87" d="M256,488.09 C256,512.98 256,531.81 256,550.61 " fill="none" id="DocumentEditor-to-Command" style="stroke:#181818;stroke-width:1.0;"/><polygon fill="#181818" points="256,556.61,260,547.61,256,551.61,252,547.61,256,556.61" style="stroke:#181818;stroke-width:1.0;"/></g><!--link DocumentEditor to DocumentMemento--><g id="link_DocumentEditor_DocumentMemento"><path codeLine="88" d="M358.6,488.09 C383.6,512.98 404.3072,533.5775 423.1972,552.3775 " fill="none" id="DocumentEditor-to-DocumentMemento" style="stroke:#181818;stroke-width:1.0;"/><polygon fill="#181818" points="427.45,556.61,423.8925,547.4261,423.906,553.0829,418.2492,553.0964,427.45,556.61" style="stroke:#181818;stroke-width:1.0;"/></g><!--link MainApp to DocumentEditor--><g id="link_MainApp_DocumentEditor"><path codeLine="106" d="M485.19,213.04 C455.04,235.53 427.9099,255.7733 397.7499,278.2633 " fill="none" id="MainApp-to-DocumentEditor" style="stroke:#181818;stroke-width:1.0;"/><polygon fill="#181818" points="392.94,281.85,402.546,279.6765,396.9483,278.8611,397.7638,273.2633,392.94,281.85" style="stroke:#181818;stroke-width:1.0;"/></g><!--link MainApp to FileManager--><g id="link_MainApp_FileManager"><path codeLine="107" d="M622,213.04 C622,232.58 622,247.12 622,266.93 " fill="none" id="MainApp-to-FileManager" style="stroke:#181818;stroke-width:1.0;"/><polygon fill="#181818" points="622,272.93,626,263.93,622,267.93,618,263.93,622,272.93" style="stroke:#181818;stroke-width:1.0;"/></g><!--link MainApp to ESaveStrategies--><g id="link_MainApp_ESaveStrategies"><path codeLine="108" d="M750.21,213.04 C789.69,244.47 827.7555,274.7635 864.6555,304.1335 " fill="none" id="MainApp-to-ESaveStrategies" style="stroke:#181818;stroke-width:1.0;"/><polygon fill="#181818" points="869.35,307.87,864.7993,299.1355,865.4379,304.7562,859.8172,305.3949,869.35,307.87" style="stroke:#181818;stroke-width:1.0;"/></g><!--SRC=[ZLNDJjj04BxxAUP644JSAueK4PUYuYIAWofKLMXh3sQ9uxLsruI4zj9NuX5Gtwkp_WcxTXB88TdP-Vjcvjl90NpU_l4E81WF_IiO3aOtvrz9t6KOfKmf68geM62cuTa3w4SYqqRu1A6MF4kyFzwU20SGpgQ3cNzn0vF1REPFHtJrXQSOi8mbA27659FY0M7DSgvEH1ojLnfY0KfBfZ7X_5ryTZW3aK12o1unh2AiG5b2eo-nJwJ8KUhA8X0nDXUrrOJf-r9dKXYXl3-2Hy5ZKAZjB3qdvQsTyt2Vcsz971MyvzX0wPNWxcgfiQpgWkJDTiGMs7C3aQQt6MfS7uxVghK3bXwfOF5E3wFiGjZPMi92ZF4uiKZUiGZTKPdv7PK0AGjnRBZ9bPSfoBKQ-fLGAaMbZ7TzDH81a_DOBBFoqdC2d_xkzrsdhheTm2PMlt_c8FKyp8e5jAVtN3VXQXo6LtuOrk9eV1iCfj-6u- -ZXe15dgSSvQaTz0peTH7nYqWBwJ0LSebQhymmcpRRy2E9TEYrMA15TQXQteRQgMYRWTEnRGRjdkrR1UVZ81YCXjOcQCRhnvmgXWTK6kRK5YB70kQ2L35PNSR8qWmXJXbSN5yUKs4Y_SNawyiIEAWv7RGvprEsv6ejbgleVW-GD-gTYyM2PN75Edp2gD1jubcKcp2biNRnlCQtPCwvo5UDnb6uFlkQ4_Y1FvgDhUPSPx4ucIBjmbokSGqgOxcw5-PDQPOLz0xd9SJYmniyGFCjgaLEGJGwQzmrhcTICRhYuXtFM0gTHT2n23MBvgUjh6TGK46bwgCE4jiEHoruDULTbLb_pTanA9TPC-TcJb7rsx4pQBlU1f9psrft6f-qjUgC3NMsrLFpS9ghRRg6C7lSwXxjvnGzbkeRbglraj7pgTxKwXWoJd-v6GErZjQOlBxy-sjU4COhIiJs18MA907ZsI3F7NOOGl5eerBKbXIro7OIg2uhTiIEjRs5xzxErWZgZCvOMc3C7sA3fpjKCfQwHqnBq9mJF0HzByLIWVyKOQwvLSGcTEcveFYzYW8_VWAJYRA3sz09WILkvMtT3ukz3ic9HqqvDXFgjjagAv5ptrhWtdy0]--></g></svg>