<?xml version="1.0" encoding="us-ascii" standalone="no"?><svg xmlns="http://www.w3.org/2000/svg" xmlns:xlink="http://www.w3.org/1999/xlink" contentStyleType="text/css" height="597px" preserveAspectRatio="none" style="width:1043px;height:597px;background:#FFFFFF;" version="1.1" viewBox="0 0 1043 597" width="1043px" zoomAndPan="magnify"><defs/><g><!--class Document--><g id="elem_Document"><rect codeLine="5" fill="#F1F1F1" height="65.6094" id="Document" rx="2.5" ry="2.5" style="stroke:#181818;stroke-width:0.5;" width="122" x="7" y="416"/><ellipse cx="33.7" cy="432" fill="#ADD1B2" rx="11" ry="11" style="stroke:#181818;stroke-width:1.0;"/><path d="M36.4656,427.875 Q36.6219,427.6563 36.8094,427.5469 Q36.9969,427.4375 37.2156,427.4375 Q37.5906,427.4375 37.825,427.7031 Q38.0594,427.9531 38.0594,428.5625 L38.0594,430.0156 Q38.0594,430.625 37.825,430.8906 Q37.5906,431.1563 37.2156,431.1563 Q36.8719,431.1563 36.6688,430.9531 Q36.4656,430.7656 36.3563,430.25 Q36.3094,429.8906 36.1219,429.7031 Q35.7938,429.3281 35.1844,429.1094 Q34.575,428.8906 33.95,428.8906 Q33.1844,428.8906 32.5438,429.2188 Q31.9188,429.5469 31.4188,430.2969 Q30.9344,431.0469 30.9344,432.0781 L30.9344,433.1719 Q30.9344,434.4063 31.825,435.2344 Q32.7156,436.0469 34.3094,436.0469 Q35.2469,436.0469 35.9031,435.7969 Q36.2938,435.6406 36.7156,435.2031 Q36.9813,434.9375 37.1219,434.8594 Q37.2781,434.7813 37.4813,434.7813 Q37.8094,434.7813 38.0594,435.0469 Q38.325,435.2969 38.325,435.6406 Q38.325,435.9844 37.9813,436.3906 Q37.4813,436.9688 36.6844,437.2969 Q35.6063,437.75 34.3094,437.75 Q32.7938,437.75 31.5906,437.125 Q30.6063,436.625 29.9188,435.5625 Q29.2313,434.4844 29.2313,433.2031 L29.2313,432.0469 Q29.2313,430.7188 29.8406,429.5781 Q30.4656,428.4219 31.5594,427.8125 Q32.6531,427.1875 33.8875,427.1875 Q34.6219,427.1875 35.2625,427.3594 Q35.9188,427.5156 36.4656,427.875 Z " fill="#000000"/><text fill="#000000" font-family="sans-serif" font-size="14" lengthAdjust="spacing" textLength="64" x="50.3" y="437.7285">Document</text><line style="stroke:#181818;stroke-width:0.5;" x1="8" x2="128" y1="448" y2="448"/><rect fill="none" height="6" style="stroke:#C82930;stroke-width:1.0;" width="6" x="15" y="459.3047"/><text fill="#000000" font-family="sans-serif" font-size="14" lengthAdjust="spacing" textLength="96" x="27" y="466.5332">content : String</text><line style="stroke:#181818;stroke-width:0.5;" x1="8" x2="128" y1="473.6094" y2="473.6094"/></g><!--class FileManager--><g id="elem_FileManager"><rect codeLine="13" fill="#F1F1F1" height="118.4375" id="FileManager" rx="2.5" ry="2.5" style="stroke:#181818;stroke-width:0.5;" width="217" x="727.5" y="7"/><ellipse cx="792.25" cy="23" fill="#ADD1B2" rx="11" ry="11" style="stroke:#181818;stroke-width:1.0;"/><path d="M795.0156,18.875 Q795.1719,18.6563 795.3594,18.5469 Q795.5469,18.4375 795.7656,18.4375 Q796.1406,18.4375 796.375,18.7031 Q796.6094,18.9531 796.6094,19.5625 L796.6094,21.0156 Q796.6094,21.625 796.375,21.8906 Q796.1406,22.1563 795.7656,22.1563 Q795.4219,22.1563 795.2188,21.9531 Q795.0156,21.7656 794.9063,21.25 Q794.8594,20.8906 794.6719,20.7031 Q794.3438,20.3281 793.7344,20.1094 Q793.125,19.8906 792.5,19.8906 Q791.7344,19.8906 791.0938,20.2188 Q790.4688,20.5469 789.9688,21.2969 Q789.4844,22.0469 789.4844,23.0781 L789.4844,24.1719 Q789.4844,25.4063 790.375,26.2344 Q791.2656,27.0469 792.8594,27.0469 Q793.7969,27.0469 794.4531,26.7969 Q794.8438,26.6406 795.2656,26.2031 Q795.5313,25.9375 795.6719,25.8594 Q795.8281,25.7813 796.0313,25.7813 Q796.3594,25.7813 796.6094,26.0469 Q796.875,26.2969 796.875,26.6406 Q796.875,26.9844 796.5313,27.3906 Q796.0313,27.9688 795.2344,28.2969 Q794.1563,28.75 792.8594,28.75 Q791.3438,28.75 790.1406,28.125 Q789.1563,27.625 788.4688,26.5625 Q787.7813,25.4844 787.7813,24.2031 L787.7813,23.0469 Q787.7813,21.7188 788.3906,20.5781 Q789.0156,19.4219 790.1094,18.8125 Q791.2031,18.1875 792.4375,18.1875 Q793.1719,18.1875 793.8125,18.3594 Q794.4688,18.5156 795.0156,18.875 Z " fill="#000000"/><text fill="#000000" font-family="sans-serif" font-size="14" lengthAdjust="spacing" textLength="79" x="812.75" y="28.7285">FileManager</text><line style="stroke:#181818;stroke-width:0.5;" x1="728.5" x2="943.5" y1="39" y2="39"/><rect fill="none" height="6" style="stroke:#C82930;stroke-width:1.0;" width="6" x="735.5" y="50.3047"/><text fill="#000000" font-family="sans-serif" font-size="14" lengthAdjust="spacing" textLength="180" x="747.5" y="57.5332">saveStrategy : SaveStrategy</text><rect fill="none" height="6" style="stroke:#C82930;stroke-width:1.0;" width="6" x="735.5" y="67.9141"/><text fill="#000000" font-family="sans-serif" font-size="14" lengthAdjust="spacing" textLength="191" x="747.5" y="75.1426">parseStrategy : ParseStrategy</text><line style="stroke:#181818;stroke-width:0.5;" x1="728.5" x2="943.5" y1="82.2188" y2="82.2188"/><ellipse cx="738.5" cy="96.5234" fill="#84BE84" rx="3" ry="3" style="stroke:#038048;stroke-width:1.0;"/><text fill="#000000" font-family="sans-serif" font-size="14" lengthAdjust="spacing" textLength="143" x="747.5" y="100.752">read(path) : Document</text><ellipse cx="738.5" cy="114.1328" fill="#84BE84" rx="3" ry="3" style="stroke:#038048;stroke-width:1.0;"/><text fill="#000000" font-family="sans-serif" font-size="14" lengthAdjust="spacing" textLength="139" x="747.5" y="118.3613">save(doc : Document)</text></g><!--class SaveStrategy--><g id="elem_SaveStrategy"><rect codeLine="20" fill="#F1F1F1" height="65.6094" id="SaveStrategy" rx="2.5" ry="2.5" style="stroke:#181818;stroke-width:0.5;" width="201" x="623.5" y="237.5"/><ellipse cx="677.75" cy="253.5" fill="#B4A7E5" rx="11" ry="11" style="stroke:#181818;stroke-width:1.0;"/><path d="M678.7031,250.1406 L678.7031,256.7969 L680.4219,256.7969 Q681.0313,256.7969 681.2969,257.0313 Q681.5625,257.2656 681.5625,257.6563 Q681.5625,258.0313 681.2969,258.2656 Q681.0313,258.5 680.4219,258.5 L675.2813,258.5 Q674.6719,258.5 674.4063,258.2656 Q674.1406,258.0313 674.1406,257.6406 Q674.1406,257.2656 674.4063,257.0313 Q674.6719,256.7969 675.2813,256.7969 L677,256.7969 L677,250.1406 L675.2813,250.1406 Q674.6719,250.1406 674.4063,249.9063 Q674.1406,249.6719 674.1406,249.2813 Q674.1406,248.9063 674.4063,248.6719 Q674.6719,248.4375 675.2813,248.4375 L680.4219,248.4375 Q681.0313,248.4375 681.2969,248.6719 Q681.5625,248.9063 681.5625,249.2813 Q681.5625,249.6719 681.2969,249.9063 Q681.0313,250.1406 680.4219,250.1406 L678.7031,250.1406 Z " fill="#000000"/><text fill="#000000" font-family="sans-serif" font-size="14" font-style="italic" lengthAdjust="spacing" textLength="84" x="698.25" y="259.2285">SaveStrategy</text><line style="stroke:#181818;stroke-width:0.5;" x1="624.5" x2="823.5" y1="269.5" y2="269.5"/><line style="stroke:#181818;stroke-width:0.5;" x1="624.5" x2="823.5" y1="277.5" y2="277.5"/><ellipse cx="634.5" cy="291.8047" fill="#84BE84" rx="3" ry="3" style="stroke:#038048;stroke-width:1.0;"/><text fill="#000000" font-family="sans-serif" font-size="14" lengthAdjust="spacing" textLength="175" x="643.5" y="296.0332">save(doc : Document, path)</text></g><!--class TxtSave--><g id="elem_TxtSave"><rect codeLine="24" fill="#F1F1F1" height="48" id="TxtSave" rx="2.5" ry="2.5" style="stroke:#181818;stroke-width:0.5;" width="83" x="572.5" y="425"/><ellipse cx="587.5" cy="441" fill="#ADD1B2" rx="11" ry="11" style="stroke:#181818;stroke-width:1.0;"/><path d="M590.2656,436.875 Q590.4219,436.6563 590.6094,436.5469 Q590.7969,436.4375 591.0156,436.4375 Q591.3906,436.4375 591.625,436.7031 Q591.8594,436.9531 591.8594,437.5625 L591.8594,439.0156 Q591.8594,439.625 591.625,439.8906 Q591.3906,440.1563 591.0156,440.1563 Q590.6719,440.1563 590.4688,439.9531 Q590.2656,439.7656 590.1563,439.25 Q590.1094,438.8906 589.9219,438.7031 Q589.5938,438.3281 588.9844,438.1094 Q588.375,437.8906 587.75,437.8906 Q586.9844,437.8906 586.3438,438.2188 Q585.7188,438.5469 585.2188,439.2969 Q584.7344,440.0469 584.7344,441.0781 L584.7344,442.1719 Q584.7344,443.4063 585.625,444.2344 Q586.5156,445.0469 588.1094,445.0469 Q589.0469,445.0469 589.7031,444.7969 Q590.0938,444.6406 590.5156,444.2031 Q590.7813,443.9375 590.9219,443.8594 Q591.0781,443.7813 591.2813,443.7813 Q591.6094,443.7813 591.8594,444.0469 Q592.125,444.2969 592.125,444.6406 Q592.125,444.9844 591.7813,445.3906 Q591.2813,445.9688 590.4844,446.2969 Q589.4063,446.75 588.1094,446.75 Q586.5938,446.75 585.3906,446.125 Q584.4063,445.625 583.7188,444.5625 Q583.0313,443.4844 583.0313,442.2031 L583.0313,441.0469 Q583.0313,439.7188 583.6406,438.5781 Q584.2656,437.4219 585.3594,436.8125 Q586.4531,436.1875 587.6875,436.1875 Q588.4219,436.1875 589.0625,436.3594 Q589.7188,436.5156 590.2656,436.875 Z " fill="#000000"/><text fill="#000000" font-family="sans-serif" font-size="14" lengthAdjust="spacing" textLength="51" x="601.5" y="446.7285">TxtSave</text><line style="stroke:#181818;stroke-width:0.5;" x1="573.5" x2="654.5" y1="457" y2="457"/><line style="stroke:#181818;stroke-width:0.5;" x1="573.5" x2="654.5" y1="465" y2="465"/></g><!--class MarkdownSave--><g id="elem_MarkdownSave"><rect codeLine="25" fill="#F1F1F1" height="48" id="MarkdownSave" rx="2.5" ry="2.5" style="stroke:#181818;stroke-width:0.5;" width="128" x="691" y="425"/><ellipse cx="706" cy="441" fill="#ADD1B2" rx="11" ry="11" style="stroke:#181818;stroke-width:1.0;"/><path d="M708.7656,436.875 Q708.9219,436.6563 709.1094,436.5469 Q709.2969,436.4375 709.5156,436.4375 Q709.8906,436.4375 710.125,436.7031 Q710.3594,436.9531 710.3594,437.5625 L710.3594,439.0156 Q710.3594,439.625 710.125,439.8906 Q709.8906,440.1563 709.5156,440.1563 Q709.1719,440.1563 708.9688,439.9531 Q708.7656,439.7656 708.6563,439.25 Q708.6094,438.8906 708.4219,438.7031 Q708.0938,438.3281 707.4844,438.1094 Q706.875,437.8906 706.25,437.8906 Q705.4844,437.8906 704.8438,438.2188 Q704.2188,438.5469 703.7188,439.2969 Q703.2344,440.0469 703.2344,441.0781 L703.2344,442.1719 Q703.2344,443.4063 704.125,444.2344 Q705.0156,445.0469 706.6094,445.0469 Q707.5469,445.0469 708.2031,444.7969 Q708.5938,444.6406 709.0156,444.2031 Q709.2813,443.9375 709.4219,443.8594 Q709.5781,443.7813 709.7813,443.7813 Q710.1094,443.7813 710.3594,444.0469 Q710.625,444.2969 710.625,444.6406 Q710.625,444.9844 710.2813,445.3906 Q709.7813,445.9688 708.9844,446.2969 Q707.9063,446.75 706.6094,446.75 Q705.0938,446.75 703.8906,446.125 Q702.9063,445.625 702.2188,444.5625 Q701.5313,443.4844 701.5313,442.2031 L701.5313,441.0469 Q701.5313,439.7188 702.1406,438.5781 Q702.7656,437.4219 703.8594,436.8125 Q704.9531,436.1875 706.1875,436.1875 Q706.9219,436.1875 707.5625,436.3594 Q708.2188,436.5156 708.7656,436.875 Z " fill="#000000"/><text fill="#000000" font-family="sans-serif" font-size="14" lengthAdjust="spacing" textLength="96" x="720" y="446.7285">MarkdownSave</text><line style="stroke:#181818;stroke-width:0.5;" x1="692" x2="818" y1="457" y2="457"/><line style="stroke:#181818;stroke-width:0.5;" x1="692" x2="818" y1="465" y2="465"/></g><!--class ParseStrategy--><g id="elem_ParseStrategy"><rect codeLine="30" fill="#F1F1F1" height="65.6094" id="ParseStrategy" rx="2.5" ry="2.5" style="stroke:#181818;stroke-width:0.5;" width="176" x="860" y="237.5"/><ellipse cx="899.3" cy="253.5" fill="#B4A7E5" rx="11" ry="11" style="stroke:#181818;stroke-width:1.0;"/><path d="M900.2531,250.1406 L900.2531,256.7969 L901.9719,256.7969 Q902.5813,256.7969 902.8469,257.0313 Q903.1125,257.2656 903.1125,257.6563 Q903.1125,258.0313 902.8469,258.2656 Q902.5813,258.5 901.9719,258.5 L896.8313,258.5 Q896.2219,258.5 895.9563,258.2656 Q895.6906,258.0313 895.6906,257.6406 Q895.6906,257.2656 895.9563,257.0313 Q896.2219,256.7969 896.8313,256.7969 L898.55,256.7969 L898.55,250.1406 L896.8313,250.1406 Q896.2219,250.1406 895.9563,249.9063 Q895.6906,249.6719 895.6906,249.2813 Q895.6906,248.9063 895.9563,248.6719 Q896.2219,248.4375 896.8313,248.4375 L901.9719,248.4375 Q902.5813,248.4375 902.8469,248.6719 Q903.1125,248.9063 903.1125,249.2813 Q903.1125,249.6719 902.8469,249.9063 Q902.5813,250.1406 901.9719,250.1406 L900.2531,250.1406 Z " fill="#000000"/><text fill="#000000" font-family="sans-serif" font-size="14" font-style="italic" lengthAdjust="spacing" textLength="90" x="918.7" y="259.2285">ParseStrategy</text><line style="stroke:#181818;stroke-width:0.5;" x1="861" x2="1035" y1="269.5" y2="269.5"/><line style="stroke:#181818;stroke-width:0.5;" x1="861" x2="1035" y1="277.5" y2="277.5"/><ellipse cx="871" cy="291.8047" fill="#84BE84" rx="3" ry="3" style="stroke:#038048;stroke-width:1.0;"/><text fill="#000000" font-family="sans-serif" font-size="14" lengthAdjust="spacing" textLength="150" x="880" y="296.0332">parse(path) : Document</text></g><!--class PlainTextParse--><g id="elem_PlainTextParse"><rect codeLine="34" fill="#F1F1F1" height="48" id="PlainTextParse" rx="2.5" ry="2.5" style="stroke:#181818;stroke-width:0.5;" width="127" x="884.5" y="425"/><ellipse cx="899.5" cy="441" fill="#ADD1B2" rx="11" ry="11" style="stroke:#181818;stroke-width:1.0;"/><path d="M902.2656,436.875 Q902.4219,436.6563 902.6094,436.5469 Q902.7969,436.4375 903.0156,436.4375 Q903.3906,436.4375 903.625,436.7031 Q903.8594,436.9531 903.8594,437.5625 L903.8594,439.0156 Q903.8594,439.625 903.625,439.8906 Q903.3906,440.1563 903.0156,440.1563 Q902.6719,440.1563 902.4688,439.9531 Q902.2656,439.7656 902.1563,439.25 Q902.1094,438.8906 901.9219,438.7031 Q901.5938,438.3281 900.9844,438.1094 Q900.375,437.8906 899.75,437.8906 Q898.9844,437.8906 898.3438,438.2188 Q897.7188,438.5469 897.2188,439.2969 Q896.7344,440.0469 896.7344,441.0781 L896.7344,442.1719 Q896.7344,443.4063 897.625,444.2344 Q898.5156,445.0469 900.1094,445.0469 Q901.0469,445.0469 901.7031,444.7969 Q902.0938,444.6406 902.5156,444.2031 Q902.7813,443.9375 902.9219,443.8594 Q903.0781,443.7813 903.2813,443.7813 Q903.6094,443.7813 903.8594,444.0469 Q904.125,444.2969 904.125,444.6406 Q904.125,444.9844 903.7813,445.3906 Q903.2813,445.9688 902.4844,446.2969 Q901.4063,446.75 900.1094,446.75 Q898.5938,446.75 897.3906,446.125 Q896.4063,445.625 895.7188,444.5625 Q895.0313,443.4844 895.0313,442.2031 L895.0313,441.0469 Q895.0313,439.7188 895.6406,438.5781 Q896.2656,437.4219 897.3594,436.8125 Q898.4531,436.1875 899.6875,436.1875 Q900.4219,436.1875 901.0625,436.3594 Q901.7188,436.5156 902.2656,436.875 Z " fill="#000000"/><text fill="#000000" font-family="sans-serif" font-size="14" lengthAdjust="spacing" textLength="95" x="913.5" y="446.7285">PlainTextParse</text><line style="stroke:#181818;stroke-width:0.5;" x1="885.5" x2="1010.5" y1="457" y2="457"/><line style="stroke:#181818;stroke-width:0.5;" x1="885.5" x2="1010.5" y1="465" y2="465"/></g><!--class Command--><g id="elem_Command"><rect codeLine="46" fill="#F1F1F1" height="65.6094" id="Command" rx="2.5" ry="2.5" style="stroke:#181818;stroke-width:0.5;" width="184" x="164" y="416"/><ellipse cx="219.75" cy="432" fill="#B4A7E5" rx="11" ry="11" style="stroke:#181818;stroke-width:1.0;"/><path d="M220.7031,428.6406 L220.7031,435.2969 L222.4219,435.2969 Q223.0313,435.2969 223.2969,435.5313 Q223.5625,435.7656 223.5625,436.1563 Q223.5625,436.5313 223.2969,436.7656 Q223.0313,437 222.4219,437 L217.2813,437 Q216.6719,437 216.4063,436.7656 Q216.1406,436.5313 216.1406,436.1406 Q216.1406,435.7656 216.4063,435.5313 Q216.6719,435.2969 217.2813,435.2969 L219,435.2969 L219,428.6406 L217.2813,428.6406 Q216.6719,428.6406 216.4063,428.4063 Q216.1406,428.1719 216.1406,427.7813 Q216.1406,427.4063 216.4063,427.1719 Q216.6719,426.9375 217.2813,426.9375 L222.4219,426.9375 Q223.0313,426.9375 223.2969,427.1719 Q223.5625,427.4063 223.5625,427.7813 Q223.5625,428.1719 223.2969,428.4063 Q223.0313,428.6406 222.4219,428.6406 L220.7031,428.6406 Z " fill="#000000"/><text fill="#000000" font-family="sans-serif" font-size="14" font-style="italic" lengthAdjust="spacing" textLength="64" x="240.25" y="437.7285">Command</text><line style="stroke:#181818;stroke-width:0.5;" x1="165" x2="347" y1="448" y2="448"/><line style="stroke:#181818;stroke-width:0.5;" x1="165" x2="347" y1="456" y2="456"/><ellipse cx="175" cy="470.3047" fill="#84BE84" rx="3" ry="3" style="stroke:#038048;stroke-width:1.0;"/><text fill="#000000" font-family="sans-serif" font-size="14" lengthAdjust="spacing" textLength="158" x="184" y="474.5332">execute(doc : Document)</text></g><!--class TypeCommand--><g id="elem_TypeCommand"><rect codeLine="50" fill="#F1F1F1" height="48" id="TypeCommand" rx="2.5" ry="2.5" style="stroke:#181818;stroke-width:0.5;" width="128" x="24" y="542"/><ellipse cx="39" cy="558" fill="#ADD1B2" rx="11" ry="11" style="stroke:#181818;stroke-width:1.0;"/><path d="M41.7656,553.875 Q41.9219,553.6563 42.1094,553.5469 Q42.2969,553.4375 42.5156,553.4375 Q42.8906,553.4375 43.125,553.7031 Q43.3594,553.9531 43.3594,554.5625 L43.3594,556.0156 Q43.3594,556.625 43.125,556.8906 Q42.8906,557.1563 42.5156,557.1563 Q42.1719,557.1563 41.9688,556.9531 Q41.7656,556.7656 41.6563,556.25 Q41.6094,555.8906 41.4219,555.7031 Q41.0938,555.3281 40.4844,555.1094 Q39.875,554.8906 39.25,554.8906 Q38.4844,554.8906 37.8438,555.2188 Q37.2188,555.5469 36.7188,556.2969 Q36.2344,557.0469 36.2344,558.0781 L36.2344,559.1719 Q36.2344,560.4063 37.125,561.2344 Q38.0156,562.0469 39.6094,562.0469 Q40.5469,562.0469 41.2031,561.7969 Q41.5938,561.6406 42.0156,561.2031 Q42.2813,560.9375 42.4219,560.8594 Q42.5781,560.7813 42.7813,560.7813 Q43.1094,560.7813 43.3594,561.0469 Q43.625,561.2969 43.625,561.6406 Q43.625,561.9844 43.2813,562.3906 Q42.7813,562.9688 41.9844,563.2969 Q40.9063,563.75 39.6094,563.75 Q38.0938,563.75 36.8906,563.125 Q35.9063,562.625 35.2188,561.5625 Q34.5313,560.4844 34.5313,559.2031 L34.5313,558.0469 Q34.5313,556.7188 35.1406,555.5781 Q35.7656,554.4219 36.8594,553.8125 Q37.9531,553.1875 39.1875,553.1875 Q39.9219,553.1875 40.5625,553.3594 Q41.2188,553.5156 41.7656,553.875 Z " fill="#000000"/><text fill="#000000" font-family="sans-serif" font-size="14" lengthAdjust="spacing" textLength="96" x="53" y="563.7285">TypeCommand</text><line style="stroke:#181818;stroke-width:0.5;" x1="25" x2="151" y1="574" y2="574"/><line style="stroke:#181818;stroke-width:0.5;" x1="25" x2="151" y1="582" y2="582"/></g><!--class DeleteCommand--><g id="elem_DeleteCommand"><rect codeLine="51" fill="#F1F1F1" height="48" id="DeleteCommand" rx="2.5" ry="2.5" style="stroke:#181818;stroke-width:0.5;" width="137" x="187.5" y="542"/><ellipse cx="202.5" cy="558" fill="#ADD1B2" rx="11" ry="11" style="stroke:#181818;stroke-width:1.0;"/><path d="M205.2656,553.875 Q205.4219,553.6563 205.6094,553.5469 Q205.7969,553.4375 206.0156,553.4375 Q206.3906,553.4375 206.625,553.7031 Q206.8594,553.9531 206.8594,554.5625 L206.8594,556.0156 Q206.8594,556.625 206.625,556.8906 Q206.3906,557.1563 206.0156,557.1563 Q205.6719,557.1563 205.4688,556.9531 Q205.2656,556.7656 205.1563,556.25 Q205.1094,555.8906 204.9219,555.7031 Q204.5938,555.3281 203.9844,555.1094 Q203.375,554.8906 202.75,554.8906 Q201.9844,554.8906 201.3438,555.2188 Q200.7188,555.5469 200.2188,556.2969 Q199.7344,557.0469 199.7344,558.0781 L199.7344,559.1719 Q199.7344,560.4063 200.625,561.2344 Q201.5156,562.0469 203.1094,562.0469 Q204.0469,562.0469 204.7031,561.7969 Q205.0938,561.6406 205.5156,561.2031 Q205.7813,560.9375 205.9219,560.8594 Q206.0781,560.7813 206.2813,560.7813 Q206.6094,560.7813 206.8594,561.0469 Q207.125,561.2969 207.125,561.6406 Q207.125,561.9844 206.7813,562.3906 Q206.2813,562.9688 205.4844,563.2969 Q204.4063,563.75 203.1094,563.75 Q201.5938,563.75 200.3906,563.125 Q199.4063,562.625 198.7188,561.5625 Q198.0313,560.4844 198.0313,559.2031 L198.0313,558.0469 Q198.0313,556.7188 198.6406,555.5781 Q199.2656,554.4219 200.3594,553.8125 Q201.4531,553.1875 202.6875,553.1875 Q203.4219,553.1875 204.0625,553.3594 Q204.7188,553.5156 205.2656,553.875 Z " fill="#000000"/><text fill="#000000" font-family="sans-serif" font-size="14" lengthAdjust="spacing" textLength="105" x="216.5" y="563.7285">DeleteCommand</text><line style="stroke:#181818;stroke-width:0.5;" x1="188.5" x2="323.5" y1="574" y2="574"/><line style="stroke:#181818;stroke-width:0.5;" x1="188.5" x2="323.5" y1="582" y2="582"/></g><!--class PasteCommand--><g id="elem_PasteCommand"><rect codeLine="52" fill="#F1F1F1" height="48" id="PasteCommand" rx="2.5" ry="2.5" style="stroke:#181818;stroke-width:0.5;" width="132" x="360" y="542"/><ellipse cx="375" cy="558" fill="#ADD1B2" rx="11" ry="11" style="stroke:#181818;stroke-width:1.0;"/><path d="M377.7656,553.875 Q377.9219,553.6563 378.1094,553.5469 Q378.2969,553.4375 378.5156,553.4375 Q378.8906,553.4375 379.125,553.7031 Q379.3594,553.9531 379.3594,554.5625 L379.3594,556.0156 Q379.3594,556.625 379.125,556.8906 Q378.8906,557.1563 378.5156,557.1563 Q378.1719,557.1563 377.9688,556.9531 Q377.7656,556.7656 377.6563,556.25 Q377.6094,555.8906 377.4219,555.7031 Q377.0938,555.3281 376.4844,555.1094 Q375.875,554.8906 375.25,554.8906 Q374.4844,554.8906 373.8438,555.2188 Q373.2188,555.5469 372.7188,556.2969 Q372.2344,557.0469 372.2344,558.0781 L372.2344,559.1719 Q372.2344,560.4063 373.125,561.2344 Q374.0156,562.0469 375.6094,562.0469 Q376.5469,562.0469 377.2031,561.7969 Q377.5938,561.6406 378.0156,561.2031 Q378.2813,560.9375 378.4219,560.8594 Q378.5781,560.7813 378.7813,560.7813 Q379.1094,560.7813 379.3594,561.0469 Q379.625,561.2969 379.625,561.6406 Q379.625,561.9844 379.2813,562.3906 Q378.7813,562.9688 377.9844,563.2969 Q376.9063,563.75 375.6094,563.75 Q374.0938,563.75 372.8906,563.125 Q371.9063,562.625 371.2188,561.5625 Q370.5313,560.4844 370.5313,559.2031 L370.5313,558.0469 Q370.5313,556.7188 371.1406,555.5781 Q371.7656,554.4219 372.8594,553.8125 Q373.9531,553.1875 375.1875,553.1875 Q375.9219,553.1875 376.5625,553.3594 Q377.2188,553.5156 377.7656,553.875 Z " fill="#000000"/><text fill="#000000" font-family="sans-serif" font-size="14" lengthAdjust="spacing" textLength="100" x="389" y="563.7285">PasteCommand</text><line style="stroke:#181818;stroke-width:0.5;" x1="361" x2="491" y1="574" y2="574"/><line style="stroke:#181818;stroke-width:0.5;" x1="361" x2="491" y1="582" y2="582"/></g><!--class DocumentMemento--><g id="elem_DocumentMemento"><rect codeLine="62" fill="#F1F1F1" height="65.6094" id="DocumentMemento" rx="2.5" ry="2.5" style="stroke:#181818;stroke-width:0.5;" width="154" x="383" y="416"/><ellipse cx="398" cy="432" fill="#ADD1B2" rx="11" ry="11" style="stroke:#181818;stroke-width:1.0;"/><path d="M400.7656,427.875 Q400.9219,427.6563 401.1094,427.5469 Q401.2969,427.4375 401.5156,427.4375 Q401.8906,427.4375 402.125,427.7031 Q402.3594,427.9531 402.3594,428.5625 L402.3594,430.0156 Q402.3594,430.625 402.125,430.8906 Q401.8906,431.1563 401.5156,431.1563 Q401.1719,431.1563 400.9688,430.9531 Q400.7656,430.7656 400.6563,430.25 Q400.6094,429.8906 400.4219,429.7031 Q400.0938,429.3281 399.4844,429.1094 Q398.875,428.8906 398.25,428.8906 Q397.4844,428.8906 396.8438,429.2188 Q396.2188,429.5469 395.7188,430.2969 Q395.2344,431.0469 395.2344,432.0781 L395.2344,433.1719 Q395.2344,434.4063 396.125,435.2344 Q397.0156,436.0469 398.6094,436.0469 Q399.5469,436.0469 400.2031,435.7969 Q400.5938,435.6406 401.0156,435.2031 Q401.2813,434.9375 401.4219,434.8594 Q401.5781,434.7813 401.7813,434.7813 Q402.1094,434.7813 402.3594,435.0469 Q402.625,435.2969 402.625,435.6406 Q402.625,435.9844 402.2813,436.3906 Q401.7813,436.9688 400.9844,437.2969 Q399.9063,437.75 398.6094,437.75 Q397.0938,437.75 395.8906,437.125 Q394.9063,436.625 394.2188,435.5625 Q393.5313,434.4844 393.5313,433.2031 L393.5313,432.0469 Q393.5313,430.7188 394.1406,429.5781 Q394.7656,428.4219 395.8594,427.8125 Q396.9531,427.1875 398.1875,427.1875 Q398.9219,427.1875 399.5625,427.3594 Q400.2188,427.5156 400.7656,427.875 Z " fill="#000000"/><text fill="#000000" font-family="sans-serif" font-size="14" lengthAdjust="spacing" textLength="122" x="412" y="437.7285">DocumentMemento</text><line style="stroke:#181818;stroke-width:0.5;" x1="384" x2="536" y1="448" y2="448"/><rect fill="none" height="6" style="stroke:#C82930;stroke-width:1.0;" width="6" x="391" y="459.3047"/><text fill="#000000" font-family="sans-serif" font-size="14" lengthAdjust="spacing" textLength="80" x="403" y="466.5332">state : String</text><line style="stroke:#181818;stroke-width:0.5;" x1="384" x2="536" y1="473.6094" y2="473.6094"/></g><!--class DocumentEditor--><g id="elem_DocumentEditor"><rect codeLine="66" fill="#F1F1F1" height="171.2656" id="DocumentEditor" rx="2.5" ry="2.5" style="stroke:#181818;stroke-width:0.5;" width="278" x="117" y="185"/><ellipse cx="201.25" cy="201" fill="#ADD1B2" rx="11" ry="11" style="stroke:#181818;stroke-width:1.0;"/><path d="M204.0156,196.875 Q204.1719,196.6563 204.3594,196.5469 Q204.5469,196.4375 204.7656,196.4375 Q205.1406,196.4375 205.375,196.7031 Q205.6094,196.9531 205.6094,197.5625 L205.6094,199.0156 Q205.6094,199.625 205.375,199.8906 Q205.1406,200.1563 204.7656,200.1563 Q204.4219,200.1563 204.2188,199.9531 Q204.0156,199.7656 203.9063,199.25 Q203.8594,198.8906 203.6719,198.7031 Q203.3438,198.3281 202.7344,198.1094 Q202.125,197.8906 201.5,197.8906 Q200.7344,197.8906 200.0938,198.2188 Q199.4688,198.5469 198.9688,199.2969 Q198.4844,200.0469 198.4844,201.0781 L198.4844,202.1719 Q198.4844,203.4063 199.375,204.2344 Q200.2656,205.0469 201.8594,205.0469 Q202.7969,205.0469 203.4531,204.7969 Q203.8438,204.6406 204.2656,204.2031 Q204.5313,203.9375 204.6719,203.8594 Q204.8281,203.7813 205.0313,203.7813 Q205.3594,203.7813 205.6094,204.0469 Q205.875,204.2969 205.875,204.6406 Q205.875,204.9844 205.5313,205.3906 Q205.0313,205.9688 204.2344,206.2969 Q203.1563,206.75 201.8594,206.75 Q200.3438,206.75 199.1406,206.125 Q198.1563,205.625 197.4688,204.5625 Q196.7813,203.4844 196.7813,202.2031 L196.7813,201.0469 Q196.7813,199.7188 197.3906,198.5781 Q198.0156,197.4219 199.1094,196.8125 Q200.2031,196.1875 201.4375,196.1875 Q202.1719,196.1875 202.8125,196.3594 Q203.4688,196.5156 204.0156,196.875 Z " fill="#000000"/><text fill="#000000" font-family="sans-serif" font-size="14" lengthAdjust="spacing" textLength="101" x="221.75" y="206.7285">DocumentEditor</text><line style="stroke:#181818;stroke-width:0.5;" x1="118" x2="394" y1="217" y2="217"/><rect fill="none" height="6" style="stroke:#C82930;stroke-width:1.0;" width="6" x="125" y="228.3047"/><text fill="#000000" font-family="sans-serif" font-size="14" lengthAdjust="spacing" textLength="138" x="137" y="235.5332">document : Document</text><rect fill="none" height="6" style="stroke:#C82930;stroke-width:1.0;" width="6" x="125" y="245.9141"/><text fill="#000000" font-family="sans-serif" font-size="14" lengthAdjust="spacing" textLength="252" x="137" y="253.1426">undoStack : Stack&lt;DocumentMemento&gt;</text><rect fill="none" height="6" style="stroke:#C82930;stroke-width:1.0;" width="6" x="125" y="263.5234"/><text fill="#000000" font-family="sans-serif" font-size="14" lengthAdjust="spacing" textLength="249" x="137" y="270.752">redoStack : Stack&lt;DocumentMemento&gt;</text><line style="stroke:#181818;stroke-width:0.5;" x1="118" x2="394" y1="277.8281" y2="277.8281"/><ellipse cx="128" cy="292.1328" fill="#84BE84" rx="3" ry="3" style="stroke:#038048;stroke-width:1.0;"/><text fill="#000000" font-family="sans-serif" font-size="14" lengthAdjust="spacing" textLength="161" x="137" y="296.3613">execute(cmd : Command)</text><ellipse cx="128" cy="309.7422" fill="#84BE84" rx="3" ry="3" style="stroke:#038048;stroke-width:1.0;"/><text fill="#000000" font-family="sans-serif" font-size="14" lengthAdjust="spacing" textLength="42" x="137" y="313.9707">undo()</text><ellipse cx="128" cy="327.3516" fill="#84BE84" rx="3" ry="3" style="stroke:#038048;stroke-width:1.0;"/><text fill="#000000" font-family="sans-serif" font-size="14" lengthAdjust="spacing" textLength="39" x="137" y="331.5801">redo()</text><ellipse cx="128" cy="344.9609" fill="#84BE84" rx="3" ry="3" style="stroke:#038048;stroke-width:1.0;"/><text fill="#000000" font-family="sans-serif" font-size="14" lengthAdjust="spacing" textLength="110" x="137" y="349.1895">createSnapshot()</text></g><!--class EditorGUI--><g id="elem_EditorGUI"><rect codeLine="84" fill="#F1F1F1" height="83.2188" id="EditorGUI" rx="2.5" ry="2.5" style="stroke:#181818;stroke-width:0.5;" width="123" x="194.5" y="24.5"/><ellipse cx="223.45" cy="40.5" fill="#ADD1B2" rx="11" ry="11" style="stroke:#181818;stroke-width:1.0;"/><path d="M226.2156,36.375 Q226.3719,36.1563 226.5594,36.0469 Q226.7469,35.9375 226.9656,35.9375 Q227.3406,35.9375 227.575,36.2031 Q227.8094,36.4531 227.8094,37.0625 L227.8094,38.5156 Q227.8094,39.125 227.575,39.3906 Q227.3406,39.6563 226.9656,39.6563 Q226.6219,39.6563 226.4188,39.4531 Q226.2156,39.2656 226.1063,38.75 Q226.0594,38.3906 225.8719,38.2031 Q225.5438,37.8281 224.9344,37.6094 Q224.325,37.3906 223.7,37.3906 Q222.9344,37.3906 222.2938,37.7188 Q221.6688,38.0469 221.1688,38.7969 Q220.6844,39.5469 220.6844,40.5781 L220.6844,41.6719 Q220.6844,42.9063 221.575,43.7344 Q222.4656,44.5469 224.0594,44.5469 Q224.9969,44.5469 225.6531,44.2969 Q226.0438,44.1406 226.4656,43.7031 Q226.7313,43.4375 226.8719,43.3594 Q227.0281,43.2813 227.2313,43.2813 Q227.5594,43.2813 227.8094,43.5469 Q228.075,43.7969 228.075,44.1406 Q228.075,44.4844 227.7313,44.8906 Q227.2313,45.4688 226.4344,45.7969 Q225.3563,46.25 224.0594,46.25 Q222.5438,46.25 221.3406,45.625 Q220.3563,45.125 219.6688,44.0625 Q218.9813,42.9844 218.9813,41.7031 L218.9813,40.5469 Q218.9813,39.2188 219.5906,38.0781 Q220.2156,36.9219 221.3094,36.3125 Q222.4031,35.6875 223.6375,35.6875 Q224.3719,35.6875 225.0125,35.8594 Q225.6688,36.0156 226.2156,36.375 Z " fill="#000000"/><text fill="#000000" font-family="sans-serif" font-size="14" lengthAdjust="spacing" textLength="60" x="240.55" y="46.2285">EditorGUI</text><line style="stroke:#181818;stroke-width:0.5;" x1="195.5" x2="316.5" y1="56.5" y2="56.5"/><line style="stroke:#181818;stroke-width:0.5;" x1="195.5" x2="316.5" y1="64.5" y2="64.5"/><ellipse cx="205.5" cy="78.8047" fill="#84BE84" rx="3" ry="3" style="stroke:#038048;stroke-width:1.0;"/><text fill="#000000" font-family="sans-serif" font-size="14" lengthAdjust="spacing" textLength="97" x="214.5" y="83.0332">onButtonClick()</text><ellipse cx="205.5" cy="96.4141" fill="#84BE84" rx="3" ry="3" style="stroke:#038048;stroke-width:1.0;"/><text fill="#000000" font-family="sans-serif" font-size="14" lengthAdjust="spacing" textLength="79" x="214.5" y="100.6426">onShortcut()</text></g><!--reverse link SaveStrategy to TxtSave--><g id="link_SaveStrategy_TxtSave"><path codeLine="27" d="M694.3,319.1465 C672.47,354.1765 647.72,393.89 628.44,424.84 " fill="none" id="SaveStrategy-backto-TxtSave" style="stroke:#181818;stroke-width:1.0;"/><polygon fill="none" points="703.82,303.87,689.2079,315.9731,699.3922,322.3198,703.82,303.87" style="stroke:#181818;stroke-width:1.0;"/></g><!--reverse link SaveStrategy to MarkdownSave--><g id="link_SaveStrategy_MarkdownSave"><path codeLine="28" d="M732.8025,321.5988 C738.9525,356.6288 745.5,393.89 750.93,424.84 " fill="none" id="SaveStrategy-backto-MarkdownSave" style="stroke:#181818;stroke-width:1.0;"/><polygon fill="none" points="729.69,303.87,726.8929,322.6364,738.7122,320.5613,729.69,303.87" style="stroke:#181818;stroke-width:1.0;"/></g><!--reverse link ParseStrategy to PlainTextParse--><g id="link_ParseStrategy_PlainTextParse"><path codeLine="36" d="M948,321.87 C948,356.9 948,393.89 948,424.84 " fill="none" id="ParseStrategy-backto-PlainTextParse" style="stroke:#181818;stroke-width:1.0;"/><polygon fill="none" points="948,303.87,942,321.87,954,321.87,948,303.87" style="stroke:#181818;stroke-width:1.0;"/></g><!--link FileManager to SaveStrategy--><g id="link_FileManager_SaveStrategy"><path codeLine="38" d="M803.91,125.03 C783.74,161.49 761.3841,201.9096 744.7241,232.0296 " fill="none" id="FileManager-to-SaveStrategy" style="stroke:#181818;stroke-width:1.0;"/><polygon fill="#181818" points="741.82,237.28,749.6764,231.3405,744.2401,232.9047,742.6759,227.4684,741.82,237.28" style="stroke:#181818;stroke-width:1.0;"/></g><!--link FileManager to ParseStrategy--><g id="link_FileManager_ParseStrategy"><path codeLine="39" d="M868.09,125.03 C888.26,161.49 910.6159,201.9096 927.2759,232.0296 " fill="none" id="FileManager-to-ParseStrategy" style="stroke:#181818;stroke-width:1.0;"/><polygon fill="#181818" points="930.18,237.28,929.3241,227.4684,927.7599,232.9047,922.3236,231.3405,930.18,237.28" style="stroke:#181818;stroke-width:1.0;"/></g><!--reverse link Command to TypeCommand--><g id="link_Command_TypeCommand"><path codeLine="54" d="M194.3485,492.2003 C166.5885,511.2103 146.87,524.7 121.77,541.89 " fill="none" id="Command-backto-TypeCommand" style="stroke:#181818;stroke-width:1.0;"/><polygon fill="none" points="209.2,482.03,190.9585,487.2498,197.7386,497.1507,209.2,482.03" style="stroke:#181818;stroke-width:1.0;"/></g><!--reverse link Command to DeleteCommand--><g id="link_Command_DeleteCommand"><path codeLine="55" d="M256,500.03 C256,519.04 256,524.7 256,541.89 " fill="none" id="Command-backto-DeleteCommand" style="stroke:#181818;stroke-width:1.0;"/><polygon fill="none" points="256,482.03,250,500.03,262,500.03,256,482.03" style="stroke:#181818;stroke-width:1.0;"/></g><!--reverse link Command to PasteCommand--><g id="link_Command_PasteCommand"><path codeLine="56" d="M318.2588,492.116 C346.3588,511.126 366.43,524.7 391.83,541.89 " fill="none" id="Command-backto-PasteCommand" style="stroke:#181818;stroke-width:1.0;"/><polygon fill="none" points="303.35,482.03,314.8968,497.0856,321.6208,487.1464,303.35,482.03" style="stroke:#181818;stroke-width:1.0;"/></g><!--link DocumentEditor to Document--><g id="link_DocumentEditor_Document"><path codeLine="76" d="M165.85,356.13 C143.24,377.36 124.6945,394.7734 106.7345,411.6334 " fill="none" id="DocumentEditor-to-Document" style="stroke:#181818;stroke-width:1.0;"/><polygon fill="#181818" points="102.36,415.74,111.6594,412.4965,106.0054,412.3179,106.184,406.6638,102.36,415.74" style="stroke:#181818;stroke-width:1.0;"/></g><!--link DocumentEditor to Command--><g id="link_DocumentEditor_Command"><path codeLine="77" d="M256,356.13 C256,377.36 256,392.88 256,409.74 " fill="none" id="DocumentEditor-to-Command" style="stroke:#181818;stroke-width:1.0;"/><polygon fill="#181818" points="256,415.74,260,406.74,256,410.74,252,406.74,256,415.74" style="stroke:#181818;stroke-width:1.0;"/></g><!--link DocumentEditor to DocumentMemento--><g id="link_DocumentEditor_DocumentMemento"><path codeLine="78" d="M353.82,356.13 C378.36,377.36 398.6813,394.9557 418.1813,411.8157 " fill="none" id="DocumentEditor-to-DocumentMemento" style="stroke:#181818;stroke-width:1.0;"/><polygon fill="#181818" points="422.72,415.74,418.5281,406.8278,418.9377,412.4698,413.2957,412.8794,422.72,415.74" style="stroke:#181818;stroke-width:1.0;"/></g><!--link EditorGUI to DocumentEditor--><g id="link_EditorGUI_DocumentEditor"><path codeLine="89" d="M256,107.98 C256,130.05 256,152.14 256,178.67 " fill="none" id="EditorGUI-to-DocumentEditor" style="stroke:#181818;stroke-width:1.0;"/><polygon fill="#181818" points="256,184.67,260,175.67,256,179.67,252,175.67,256,184.67" style="stroke:#181818;stroke-width:1.0;"/></g><!--SRC=[ZLJDSjem4BxxAVO6JF7ataapGy5DCrC30yuXHrNQWc8ZCPPSiDjU-afvX4pUgv9iWqKe2GSZxP- -_VQd1v_E_u8UnBD9z0qce-d3-Akv_i-GPaGfc4XQR51e-1K0X5GARIyVOQbpBbR1d-12X1uiayKeYMuVO3vAacWnDQ8lFCEO2BB271Xck2eU4IgovUfACbgL6fW4fNEYSSNvc_YwuHn4HNxYidOlBSxErQgt95TT_RnxDmOVSYIiloLwFJ3QDdkhi87xJDAEU63pvuQI_0UXwBtbm9pp6O8BRZth39AzjexDBIPvokHEE57WHRp-7OO7wzSQt_E8oikmXkL8U9ta0T8y8rmakDVEDmZy4EwrKvDk7SBmnkVzLEcJVh63nhCu7aqddGPguKQCQvd38oeDQSQD13UGIgDYnkgE8Sa40ii8tDxV3K5BcNqd-VFJ3ZYer1oqFQSPsN5LoLr9rnU07EaSoys625OJYNkaXJxR5arnooqs7kr0cPxN9x8vKKTHqBvGrxiJm5FuSJoL7-uIkt4KHzDarc7tNZ1vjK0pWzkymWgK85krbheqCqb4OOOpTJaMxzuSCTglRAPJcvfxwyCtRehgR5cxUhmv30k3SAa9JLqOytzzyjADjShn7LQ7-j4DCtODPGEhiQ_q1_L2Q4_Kx0QDouQHlYlp2N3RtGUmPtHjLIwuDVWk5ywqTFs5NLdjY6doklFB8GXkzgaWe2fQuUhvwUMlxNDafNc8l5cr6f0Dx1fSYi-5rbACCqxJcWKfbckPQyDRpS3Hevj5BGt-0G00]--></g></svg>